<svg xmlns="http://www.w3.org/2000/svg" xmlns:xlink="http://www.w3.org/1999/xlink" width="105.286" height="53.439" viewBox="0 0 105.286 53.439"><defs><path id="a" d="M0 0h105.286v53.44H0z"/></defs><clipPath id="b"><use xlink:href="#a" overflow="visible"/></clipPath><path clip-path="url(#b)" fill="#0CBDEF" d="M102.01 47.07H89.352c-3.16 0-5.73-2.57-5.73-5.725v-6.202c0-3.16 2.57-5.727 5.73-5.727h12.656c1.724 0 3.12-1.397 3.12-3.12 0-1.725-1.396-3.126-3.12-3.126H89.352c-6.6 0-11.972 5.373-11.972 11.973v6.202c0 6.598 5.372 11.97 11.973 11.97h12.656c1.724 0 3.12-1.397 3.12-3.123 0-1.723-1.396-3.12-3.12-3.12"/><path clip-path="url(#b)" fill="#04BDE7" d="M89.793 41.363h11.534v-.006c1.66-.08 2.97-1.442 2.97-3.113 0-1.675-1.31-3.033-2.97-3.114v-.008H89.64v.008c-1.653.08-2.97 1.44-2.97 3.114 0 1.67 1.317 3.033 2.97 3.113v.006h.153z"/><path clip-path="url(#b)" fill="#D5DC27" d="M71.826 23.17H57.404c-.59 0-1.14.17-1.602.462 1.317.806 1.877 2.48 1.24 3.937l-2.643 6.06V50.19c0 1.726 1.396 3.123 3.123 3.123 1.72 0 3.12-1.397 3.12-3.122V29.176h11.183c1.746 0 3.164 1.418 3.164 3.162 0 1.742-1.418 3.16-3.164 3.16h-6.55c-1.655 0-3 1.344-3 3.004s1.345 3 3 3h2.487l4.464 9.914c.516 1.19 1.68 1.9 2.902 1.9.422 0 .85-.084 1.263-.265 1.605-.698 2.333-2.567 1.638-4.166l-3.503-7.788c1.04-.322 2.005-.824 2.85-1.47v-4.482c0-2.728.918-5.243 2.46-7.26-1.566-2.81-4.572-4.713-8.01-4.713"/><path clip-path="url(#b)" fill="#39B14A" d="M79.837 27.884c-1.542 2.017-2.46 4.53-2.46 7.257v4.48c2.198-1.674 3.614-4.316 3.614-7.284 0-1.615-.417-3.134-1.153-4.452"/><path clip-path="url(#b)" fill="#F8B516" d="M29.22 23.17c-1.723 0-3.12 1.4-3.12 3.124V47.4c.98.524 1.65 1.56 1.65 2.752 0 .828-.318 1.58-.842 2.136.57.63 1.395 1.025 2.312 1.025 1.723 0 3.12-1.397 3.12-3.122V32.023l-1.94-4.453c-.568-1.3-.185-2.78.846-3.654-.542-.465-1.252-.745-2.026-.745"/><path clip-path="url(#b)" fill="#9A2378" d="M54.164 23.17c-1.212 0-2.368.705-2.882 1.89l-5.585 12.81.023.01-2 4.58-1.998-4.58.023-.01-5.588-12.81c-.514-1.185-1.667-1.89-2.88-1.89-.42 0-.845.085-1.254.263-.29.126-.55.29-.778.483.672.575 1.095 1.43 1.095 2.378v5.726l2.928 6.714-.023.01 5.59 12.81c.15.345.363.643.61.9l.007.01c.132.138.278.262.43.375l.05.035c.152.105.314.193.48.27l.058.034.018.004c.16.068.32.116.486.157.043.01.083.026.123.035.127.027.258.034.383.042.08.007.162.022.24.022.08 0 .16-.016.242-.023.125-.008.254-.015.383-.042.043-.01.083-.027.128-.034.16-.042.322-.088.478-.153l.02-.008.065-.04c.164-.074.322-.16.476-.263l.052-.042c.153-.112.294-.233.427-.37l.01-.013c.247-.258.458-.553.607-.897l5.59-12.81-.023-.01 2.224-5.106v-7.336l.008-.065-.005-.055c0-1.072.56-2.01 1.4-2.543-.122-.073-.248-.14-.38-.2-.41-.176-.835-.26-1.256-.26"/><path clip-path="url(#b)" fill="#882325" d="M55.802 23.634c-.84.53-1.403 1.472-1.403 2.54l.006.056-.007.064v7.337l2.642-6.06c.634-1.456.078-3.13-1.24-3.936"/><path clip-path="url(#b)" fill="#9D2022" d="M31.245 23.918c-1.028.875-1.414 2.35-.844 3.652l1.94 4.45v-5.726c0-.952-.423-1.803-1.095-2.376"/><path clip-path="url(#b)" fill="#EF5A2A" d="M3.12 23.17C1.4 23.17 0 24.57 0 26.295v15.01c0 6.598 5.37 11.968 11.97 11.968h12.657c.897 0 1.708-.376 2.278-.984-.502-.553-.81-1.29-.81-2.097V47.4c-.435-.234-.936-.37-1.468-.37h-6.353v-.003l-.104.002h-6.2c-3.156 0-5.727-2.568-5.727-5.726v-15.01c0-1.722-1.397-3.123-3.122-3.123"/><path clip-path="url(#b)" fill="#EE4D24" d="M26.098 47.398v2.794c0 .806.302 1.544.806 2.096.524-.556.844-1.308.844-2.134 0-1.194-.667-2.23-1.65-2.756"/><path clip-path="url(#b)" fill="#17498F" d="M11.057 14.24H5.374c-1.416 0-2.57-1.153-2.57-2.57V8.887c0-1.418 1.154-2.572 2.57-2.572h2.458c.776 0 1.404-.63 1.404-1.4 0-.775-.628-1.402-1.404-1.402H5.374C2.41 3.514 0 5.924 0 8.888v2.78c0 2.965 2.41 5.376 5.374 5.376h5.683c.773 0 1.404-.627 1.404-1.403 0-.772-.63-1.4-1.403-1.4M14.667 6.316h5.364c1.42 0 2.57 1.154 2.57 2.57v2.783c0 1.417-1.15 2.568-2.57 2.568h-5.363c-.774 0-1.403.628-1.403 1.404 0 .773.63 1.4 1.403 1.4h5.364c2.963 0 5.374-2.41 5.374-5.373V8.886c0-2.964-2.41-5.374-5.373-5.374h-5.363c-.774 0-1.403.63-1.403 1.4 0 .774.628 1.403 1.403 1.403M49.82 14.24H44.46c-1.42 0-2.572-1.153-2.572-2.57V8.887c0-1.418 1.15-2.572 2.572-2.572h5.363c.777 0 1.404-.626 1.404-1.4 0-.775-.627-1.402-1.403-1.402H44.46c-2.965 0-5.374 2.41-5.374 5.374v2.78c0 2.965 2.41 5.376 5.374 5.376h5.363c.777 0 1.404-.627 1.404-1.4 0-.776-.627-1.403-1.403-1.403M76.66 14.24h-5.367c-1.42 0-2.57-1.153-2.57-2.57V8.887c0-1.418 1.15-2.572 2.57-2.572h5.366c.772 0 1.4-.626 1.4-1.4 0-.775-.628-1.402-1.4-1.402h-5.367c-2.963 0-5.376 2.41-5.376 5.374v2.78c0 2.965 2.413 5.376 5.376 5.376h5.366c.772 0 1.4-.627 1.4-1.4 0-.776-.628-1.403-1.4-1.403M35.44 4.92v6.74c0 1.417-1.155 2.573-2.57 2.573h-1.39c-1.42 0-2.573-1.156-2.573-2.573V4.92c0-.772-.627-1.4-1.403-1.4-.77 0-1.398.628-1.398 1.4v6.74c0 2.963 2.408 5.372 5.373 5.372h1.39c2.962 0 5.373-2.41 5.373-5.372V4.92c0-.772-.63-1.4-1.4-1.4-.774 0-1.404.628-1.404 1.4M55.304 15.633V8.896c0-1.42 1.156-2.572 2.572-2.572h1.39c1.42 0 2.573 1.153 2.573 2.572v6.737c0 .775.626 1.4 1.4 1.4.775 0 1.4-.625 1.4-1.4V8.896c0-2.964-2.41-5.374-5.374-5.374h-1.39c-2.963 0-5.376 2.41-5.376 5.374v6.737c0 .775.63 1.4 1.403 1.4s1.4-.625 1.4-1.4M81.81 15.633V8.896c0-1.42 1.154-2.572 2.572-2.572h1.388c1.418 0 2.572 1.153 2.572 2.572v6.737c0 .775.63 1.4 1.4 1.4.776 0 1.404-.625 1.404-1.4V8.896c0-2.964-2.41-5.374-5.376-5.374h-1.388c-2.963 0-5.376 2.41-5.376 5.374v6.737c0 .775.63 1.4 1.403 1.4.772 0 1.4-.625 1.4-1.4M102.48 9.577v2.082c0 1.42-1.154 2.573-2.572 2.573h-1.39c-1.416 0-2.57-1.153-2.57-2.574V9.576c0-.776-.628-1.4-1.4-1.4-.774 0-1.404.624-1.404 1.4v2.082c0 2.964 2.41 5.373 5.373 5.373h1.39c2.963 0 5.38-2.41 5.38-5.374V9.576c0-.776-.633-1.4-1.407-1.4-.77 0-1.4.624-1.4 1.4"/><path clip-path="url(#b)" fill="#17498F" d="M95.948 10.976V8.894c0-1.417 1.154-2.573 2.572-2.573h1.388c1.418 0 2.572 1.157 2.572 2.574v2.082c0 .776.63 1.403 1.4 1.403.774 0 1.404-.628 1.404-1.404V8.894c0-2.964-2.41-5.373-5.376-5.373H98.52c-2.965 0-5.38 2.41-5.38 5.374v2.082c0 .776.63 1.403 1.407 1.403.77 0 1.4-.628 1.4-1.404M11.125 8.876h-5.18c-.775 0-1.403.626-1.403 1.402 0 .773.628 1.4 1.404 1.4h5.18V8.876z"/><path clip-path="url(#b)" fill="#17498F" d="M5.877 11.68h6.583c.77 0 1.4-.628 1.4-1.404 0-.772-.63-1.4-1.4-1.4H5.877v2.803zM74.512 17.666h-3.42c-.772 0-1.4.626-1.4 1.402 0 .773.628 1.4 1.4 1.4h3.42v-2.802z"/><path clip-path="url(#b)" fill="#17498F" d="M71.025 20.468h3.418c.776 0 1.398-.627 1.398-1.403 0-.772-.62-1.4-1.397-1.4h-3.418v2.803zM86.82 0h-3.415c-.776 0-1.403.627-1.403 1.403 0 .773.627 1.4 1.403 1.4h3.416V0z"/><path clip-path="url(#b)" fill="#17498F" d="M83.334 2.804h3.42c.775 0 1.4-.627 1.4-1.403 0-.77-.625-1.4-1.4-1.4h-3.42v2.804zM8.485 3.512h-1.39v2.804h1.39c1.418 0 2.572 1.15 2.572 2.572v1.39h2.804v-1.39c0-2.964-2.413-5.376-5.375-5.376"/></svg>