<svg xmlns="http://www.w3.org/2000/svg" width="51.75" height="56.667" viewBox="0 0 51.75 56.667"><path fill="none" stroke="#FFF" stroke-miterlimit="10" d="M36.694 14.72l-8.573 8.573c-1.166 1.167-3.075 1.167-4.242 0l-8.573-8.573c-1.167-1.167-1.167-3.076 0-4.243l8.573-8.573c1.167-1.167 3.076-1.167 4.243 0l8.574 8.573c1.167 1.168 1.167 3.077 0 4.243zM23.394 30.47l-8.573 8.574c-1.166 1.167-3.075 1.167-4.242 0L2.005 30.47c-1.167-1.166-1.167-3.075 0-4.242l8.573-8.573c1.167-1.167 3.076-1.167 4.243 0l8.574 8.573c1.167 1.167 1.167 3.076 0 4.243zM49.994 30.47l-8.573 8.574c-1.166 1.167-3.075 1.167-4.242 0l-8.573-8.573c-1.167-1.166-1.167-3.075 0-4.242l8.573-8.573c1.167-1.167 3.076-1.167 4.243 0l8.574 8.573c1.167 1.167 1.167 3.076 0 4.243z"/><path fill="#FFF" d="M14.954 32.246l-.235-1.11h-.058c-.39.488-.778.82-1.165.993-.387.172-.87.26-1.45.26-.774 0-1.38-.2-1.82-.6-.44-.398-.66-.965-.66-1.702 0-1.577 1.262-2.403 3.784-2.48l1.326-.042v-.484c0-.612-.13-1.065-.395-1.357s-.684-.438-1.263-.438c-.65 0-1.387.2-2.208.598l-.364-.905c.385-.21.806-.373 1.265-.492.46-.12.92-.178 1.38-.178.93 0 1.62.207 2.068.62.45.413.673 1.075.673 1.988v5.328h-.876zm-2.67-.833c.735 0 1.313-.202 1.734-.606.42-.403.63-.97.63-1.695v-.705l-1.182.05c-.94.033-1.618.18-2.034.438-.416.26-.623.66-.623 1.207 0 .427.128.753.387.976.258.223.62.335 1.086.335zM26.196 10.135c1.026 0 1.823.35 2.39 1.05.567.702.85 1.693.85 2.975s-.285 2.278-.857 2.988c-.573.71-1.368 1.065-2.384 1.065-.508 0-.972-.094-1.392-.28-.42-.19-.773-.477-1.058-.867h-.086l-.25 1.004h-.848V6.986h1.182V9.68c0 .602-.02 1.143-.057 1.623h.057c.552-.78 1.37-1.168 2.452-1.168zm-.17.99c-.808 0-1.39.232-1.746.695-.356.463-.534 1.243-.534 2.34 0 1.097.183 1.882.548 2.354.366.473.952.71 1.76.71.727 0 1.268-.266 1.624-.796.356-.53.534-1.29.534-2.283 0-1.016-.178-1.774-.534-2.273-.357-.498-.908-.747-1.653-.747z"/><path fill="none" stroke="#FFF" stroke-miterlimit="10" d="M36.694 46.42l-8.573 8.573c-1.166 1.167-3.075 1.167-4.242 0l-8.573-8.573c-1.167-1.167-1.167-3.076 0-4.243l8.573-8.573c1.167-1.167 3.076-1.167 4.243 0l8.574 8.573c1.167 1.167 1.167 3.076 0 4.243z"/><path fill="#FFF" d="M28.255 43.002h.057c-.038-.48-.057-1.02-.057-1.624v-2.693h1.182V49.77h-.847l-.25-1.005h-.085c-.285.39-.637.678-1.058.866-.42.19-.884.282-1.392.282-1.016 0-1.81-.355-2.383-1.065-.572-.71-.858-1.706-.858-2.988 0-1.283.284-2.274.85-2.975.57-.7 1.365-1.05 2.39-1.05 1.083 0 1.9.388 2.45 1.167zm-3.932.57c-.356.5-.534 1.256-.534 2.273 0 .992.177 1.753.533 2.283.356.53.897.795 1.624.795.808 0 1.394-.236 1.76-.71.366-.47.548-1.256.548-2.353 0-1.097-.178-1.877-.534-2.34-.355-.463-.937-.695-1.744-.695-.746 0-1.297.248-1.653.747zM40.033 32.396c-1.13 0-2.005-.348-2.625-1.044-.62-.696-.93-1.68-.93-2.953 0-1.307.315-2.316.944-3.028.63-.712 1.526-1.068 2.69-1.068.374 0 .75.04 1.124.12.375.082.67.177.884.286l-.363 1.004c-.26-.105-.546-.19-.855-.26-.31-.07-.582-.103-.82-.103-1.585 0-2.378 1.013-2.378 3.036 0 .96.194 1.695.58 2.208.388.513.96.77 1.722.77.65 0 1.317-.14 2.002-.42v1.046c-.524.27-1.18.406-1.975.406z"/></svg>