<svg baseProfile="basic" xmlns="http://www.w3.org/2000/svg" width="146.341" height="74.667" viewBox="-17.526 -22.509 146.341 74.667"><g fill="#0066B2"><path d="M122.53 5.14V4.35h6.285V0H36.258v4.352h6.287v.787h-6.287v4.23h6.287v.786h-6.287v4.363h6.287v.786h-6.287v4.434h6.287v.787h-6.287v4.246h6.287v.787h-6.287v4.312h92.556V25.56h-6.285v-.787h6.284v-4.246h-6.285v-.787h6.284v-4.434h-6.285v-.787h6.284v-4.363h-6.285V9.37h6.284V5.14h-6.284zm-56.855 5.75h-6.177c.21-.864.072-1.513-.386-1.975-.428-.464-1.18-.71-2.23-.71-1.42 0-2.85.927-3.087 2.038-.345 1.637 1.52 2.162 3.062 2.594 3.536.958 8.89 1.328 7.612 7.35-1 4.694-6.106 6.923-11.263 6.923-5.188 0-9.44-1.52-8.246-7.57h6.178c-.474 2.1.823 3.242 3.047 3.242 1.426 0 3.402-.74 3.716-2.224.645-3.026-4.065-2.378-8.46-4.51-2.045-.988-2.72-3.025-2.21-5.434 1.37-5.28 6.31-6.733 10.975-6.733 4.603 0 8.978 1.637 7.47 7.01zm19.843 2.378l-.917 4.324h-9.943l-1.004 4.725h10.81l-.923 4.323H66.555l4.74-22.298H88.28l-.31 1.467-.61 2.856H76.55l-.977 4.602h9.945zm23.054-2.377h-6.177c.21-.864.072-1.513-.386-1.975-.43-.464-1.18-.71-2.23-.71-1.42 0-2.852.927-3.088 2.038-.345 1.637 1.52 2.162 3.062 2.594 3.536.958 8.89 1.328 7.612 7.35-1 4.694-6.105 6.923-11.262 6.923-3.82 0-7.13-.823-8.136-3.673-.36-1.02-.424-2.302-.11-3.9H94.035c-.473 2.1.823 3.244 3.047 3.244 1.426 0 3.402-.74 3.716-2.223.643-3.026-4.066-2.378-8.462-4.51-2.044-.988-2.718-3.025-2.208-5.434 1.37-5.28 6.31-6.733 10.974-6.733 4.603 0 8.978 1.637 7.47 7.01zm6.995 15.75h-6.177l4.74-22.297h6.177l-4.74 22.298zM0 0v29.886h31.915V0H0zm27.658 25.56H4.31v-.788H27.66v.787zm-8.07-1.895l-.14.645H17.02l.09-.417.618-2.91h.922l-.57 2.682h1.507zM17.11 21.4l-.05.23H15.45l-.146.686h1.484l-.136.644h-1.484l-.15.705h1.614l-.138.645h-2.535l.043-.2.665-3.126H17.2l-.09.416zM14 21.184l-.666 3.127h-.922l.708-3.325h.922l-.043.2zm13.658-.658H4.31v-.787H27.66v.786zm-18-1.918c.212 0 .507-.11.553-.332.097-.452-.605-.355-1.262-.673-.305-.148-.406-.45-.33-.81.205-.79.942-1.006 1.638-1.006.687 0 1.34.244 1.114 1.046h-.92c.032-.13.01-.226-.058-.295-.064-.07-.176-.106-.333-.106-.213 0-.426.138-.46.304-.053.245.225.323.456.387.527.143 1.327.2 1.136 1.097-.15.7-.91 1.033-1.68 1.033-.774 0-1.41-.226-1.23-1.13h.922c-.072.314.12.485.453.485zm8.668-1.89l-.524 2.466h-1.276l-.587-2.548h-.01l-.542 2.548h-.829l.092-.44.614-2.887h1.29l.59 2.48.01-.01.527-2.47H18.513l-.187.862zm1.838-.86h1.124l.606 3.326h-1.04l-.084-.65H19.42l-.356.65H18.142l.184-.302 1.838-3.025zm-5.513.437l-.043.207h-1.613l-.146.687h1.484l-.137.644H12.71l-.148.705h1.613l-.138.644h-2.534l.707-3.327h2.534l-.093.438zm7.594 2.89l.708-3.328h.922l-.708 3.327h-.922zm5.414-3.88H4.31v-.786H27.66v.786zm-15.825-1.882c.213 0 .507-.11.554-.332.096-.45-.606-.354-1.263-.672-.304-.148-.405-.452-.33-.81.205-.79.942-1.006 1.638-1.006.687 0 1.34.244 1.114 1.046h-.922c.032-.13.01-.226-.058-.295-.064-.07-.176-.106-.333-.106-.212 0-.425.138-.46.304-.05.246.226.324.457.388.527.143 1.327.198 1.136 1.097-.15.7-.91 1.033-1.68 1.033-.774 0-1.41-.226-1.23-1.13h.922c-.07.314.123.485.455.485zm6.4 0c.213 0 .507-.11.554-.332.096-.45-.606-.354-1.263-.672-.304-.148-.406-.452-.33-.81.204-.79.942-1.006 1.637-1.006.688 0 1.34.244 1.115 1.046h-.922c.03-.13.01-.226-.058-.295-.064-.07-.176-.106-.333-.106-.212 0-.425.138-.46.304-.052.246.226.324.457.388.526.143 1.326.198 1.135 1.097-.15.7-.91 1.033-1.68 1.033-.57 0-1.064-.123-1.214-.548-.053-.153-.063-.344-.015-.582h.923c-.07.314.124.485.456.485zm-1.36-2.533l-.09.427h-1.614l-.147.687h1.483l-.137.645h-1.484l-.15.704h1.613l-.14.645h-2.533l.708-3.327h2.534l-.047.217zM20.07 14l.707-3.327h.922L20.99 14h-.92zm7.588-3.844H4.31V9.37H27.66v.786zm-8.69-4.324l-.655 3.083h-1.276l-.587-2.548h-.01l-.54 2.548h-.83l.01-.053.697-3.274h1.29l.59 2.48.01-.01.526-2.47H19.022l-.053.244zm.657-.244h.922l-.708 3.326h-.923l.052-.244.655-3.082zm-4.544.94c-.004.035-.01.07-.018.106h-.968c.04-.3-.148-.47-.527-.47-.53 0-.76.622-.865 1.12-.102.483-.118 1.055.402 1.055.388 0 .645-.172.73-.49h.97c-.165.84-1.03 1.135-1.837 1.135-1.037 0-1.462-.623-1.225-1.737.236-1.115.922-1.72 1.96-1.728.666 0 1.288.188 1.378.724.015.085.016.18 0 .285zM27.66 5.14H4.31v-.786H27.66v.787z"/><path d="M20.68 17.89l-.13-1.383h-.013l-.3.558-.446.824h.446"/></g><path fill="#FFF" d="M4.31 14.52H27.66v.786H4.31zM4.31 9.37H27.66v.786H4.31zM4.31 4.352H27.66v.787H4.31zM4.31 19.74H27.66v.786H4.31zM4.31 24.772H27.66v.787H4.31zM15.06 6.634c.01-.036.016-.07.02-.105.015-.106.014-.2 0-.287-.09-.537-.712-.724-1.377-.724-1.04.008-1.725.612-1.96 1.727-.238 1.115.187 1.737 1.224 1.737.807 0 1.67-.296 1.836-1.135h-.968c-.086.317-.343.488-.73.488-.522 0-.506-.572-.403-1.056.106-.497.335-1.12.865-1.12.378 0 .568.17.527.47h.967zM19.84 8.915l.706-3.327h-.92l-.657 3.083-.053.245h.052M15.9 8.915l.54-2.548h.01l.587 2.548h1.277l.655-3.083.05-.244H18.19l-.524 2.47-.01.01-.59-2.48h-1.29l-.695 3.274-.01.053h.01M13.547 11.65c.225-.803-.428-1.047-1.114-1.047-.696 0-1.433.216-1.638 1.005-.076.36.024.663.33.81.656.32 1.358.222 1.263.674-.047.22-.34.332-.554.332-.332 0-.525-.17-.454-.484h-.922c-.18.903.456 1.13 1.23 1.13.77 0 1.53-.333 1.68-1.033.19-.898-.608-.954-1.136-1.097-.23-.065-.508-.143-.457-.387.035-.166.25-.304.46-.304.157 0 .27.036.333.105.07.07.09.166.058.295h.92zM16.782 11.317l.09-.427.047-.218h-2.535L13.678 14h2.534l.138-.646h-1.613l.15-.705h1.483l.138-.646h-1.485l.146-.687M20.99 14l.708-3.328h-.92L20.067 14M19.947 11.65c.225-.803-.428-1.047-1.114-1.047-.696 0-1.433.216-1.637 1.005-.076.36.024.663.33.81.656.32 1.358.222 1.263.674-.048.22-.342.332-.555.332-.332 0-.526-.17-.454-.484h-.921c-.048.238-.04.43.015.582.15.425.644.548 1.214.548.77 0 1.53-.333 1.68-1.033.19-.898-.61-.954-1.137-1.097-.23-.065-.508-.143-.457-.387.035-.166.248-.304.46-.304.157 0 .27.036.333.105.068.07.088.166.057.295h.92zM19.064 19.184l.355-.65h1.35l.083.65h1.04l-.605-3.327h-1.124l-1.837 3.025-.184.302h.921zm1.172-2.12l.3-.557h.014l.13 1.382h-.888l.444-.825zM14.607 16.502l.044-.207.094-.438H12.21l-.707 3.327h2.534l.138-.646h-1.613l.15-.704h1.484l.136-.646h-1.484l.147-.686M23.166 19.184l.707-3.327h-.92l-.71 3.327M15.387 19.184l.542-2.548h.008l.587 2.548h1.277l.524-2.465.183-.863H17.68l-.526 2.47-.01.01-.59-2.48h-1.29l-.613 2.888-.092.44h.093M11.37 16.834c.226-.802-.427-1.046-1.113-1.046-.696 0-1.433.216-1.638 1.005-.077.36.023.663.33.81.655.32 1.357.222 1.262.674-.047.22-.34.332-.554.332-.332 0-.525-.172-.454-.485H8.28c-.178.903.457 1.13 1.23 1.13.77 0 1.532-.333 1.68-1.033.19-.9-.608-.954-1.135-1.097-.23-.065-.508-.143-.457-.387.035-.166.248-.304.46-.304.157 0 .27.037.333.106.07.07.09.166.06.295h.92zM14.04 20.984h-.92l-.707 3.326h.92L14 21.184M17.06 21.628l.05-.228.088-.416H14.664L14 24.11l-.043.2h2.532l.138-.645h-1.612l.15-.705h1.483l.136-.645h-1.484l.146-.687M19.45 24.31l.137-.645H18.08l.57-2.68h-.922l-.618 2.908-.09.417h.09M42.545 24.772h-6.287v.787h6.287M42.545 9.37h-6.287v.786h6.287M42.545 4.352h-6.287v.787h6.287M42.545 14.52h-6.287v.786h6.287M42.545 19.74h-6.287v.786h6.287M122.53 15.306h6.287v-.787h-6.287M122.53 25.56h6.287v-.788h-6.287M122.53 20.526h6.287v-.787h-6.287M122.53 5.14h6.287V4.35h-6.287M122.53 10.156h6.287V9.37h-6.287M87.36 8.667l.61-2.857.312-1.466H71.295l-4.74 22.297H83.54l.922-4.323h-10.81l1.005-4.725H84.6l.918-4.324h-9.945l.978-4.6M58.206 3.88c-4.663 0-9.605 1.452-10.974 6.733-.51 2.41.164 4.447 2.208 5.435 4.396 2.13 9.106 1.483 8.462 4.51-.314 1.482-2.29 2.223-3.716 2.223-2.224 0-3.52-1.142-3.047-3.242H44.96c-1.194 6.053 3.057 7.57 8.246 7.57 5.158 0 10.264-2.228 11.262-6.922 1.277-6.022-4.077-6.393-7.612-7.35-1.544-.433-3.408-.958-3.062-2.594.236-1.112 1.668-2.038 3.088-2.038 1.05 0 1.8.247 2.23.71.457.463.596 1.112.385 1.976h6.176c1.507-5.373-2.868-7.01-7.47-7.01zM109.39 26.64h6.177l4.74-22.296h-6.177M101.104 3.88c-4.663 0-9.605 1.452-10.974 6.733-.51 2.41.164 4.447 2.208 5.435 4.396 2.13 9.105 1.483 8.462 4.51-.314 1.482-2.29 2.223-3.716 2.223-2.224 0-3.52-1.142-3.047-3.242H87.86c-.314 1.597-.25 2.878.11 3.9 1.005 2.848 4.317 3.672 8.136 3.672 5.157 0 10.264-2.23 11.262-6.923 1.276-6.022-4.077-6.393-7.612-7.35-1.544-.433-3.407-.958-3.062-2.594.236-1.112 1.668-2.038 3.088-2.038 1.05 0 1.8.247 2.23.71.457.463.596 1.112.385 1.976h6.177c1.506-5.373-2.87-7.01-7.47-7.01z"/><g fill="#0066B2"><path d="M2.598 34.422h.844l-1.29 6.09h-.845l1.29-6.09zM4.47 36.767l.1-.49h.793l-.142.683c.035-.044.088-.11.16-.194.074-.085.17-.17.292-.253.12-.085.27-.158.447-.223.176-.065.386-.097.627-.097.096 0 .226.014.392.042.165.03.32.09.467.19.146.098.262.243.345.434.085.19.09.45.017.775L7.36 40.51h-.81l.574-2.69c.03-.14.04-.273.038-.397-.003-.123-.04-.233-.114-.328-.08-.096-.18-.168-.304-.216-.124-.05-.253-.073-.388-.073-.146 0-.29.025-.434.075-.143.05-.277.13-.4.236-.125.107-.233.24-.326.397-.093.158-.164.343-.216.557l-.514 2.438h-.793l.795-3.743zM9.717 36.278h.792l-.903 4.234h-.792l.902-4.234zm.304-1.84h.954l-.185.87h-.955l.186-.87zM14.17 37.635c.007-.05.012-.125.018-.224.006-.097-.01-.196-.046-.294-.037-.098-.1-.184-.194-.257-.093-.074-.235-.11-.426-.11-.276 0-.5.067-.68.2-.176.136-.318.294-.425.473-.106.18-.184.36-.23.536-.05.176-.082.304-.098.383-.05.22-.082.428-.094.628-.01.2.006.38.05.537.044.158.125.283.24.376.117.093.28.14.495.14.17 0 .32-.03.448-.086.13-.056.237-.13.325-.22.087-.09.16-.19.22-.3.06-.11.1-.214.122-.315h.8c-.05.208-.136.403-.256.586-.122.183-.27.343-.448.48-.177.138-.378.247-.603.33-.226.08-.468.12-.726.12-.073 0-.164-.005-.274-.016-.11-.01-.223-.035-.34-.072-.12-.036-.237-.09-.356-.164-.118-.073-.22-.17-.304-.295-.045-.072-.09-.156-.13-.252-.043-.096-.074-.208-.094-.337-.02-.128-.025-.277-.017-.446.007-.17.034-.363.08-.582.09-.44.228-.806.413-1.1.185-.296.39-.53.615-.705.225-.174.457-.298.696-.37.24-.074.465-.11.68-.11.066 0 .155.005.265.016.11.01.22.035.332.072.112.037.222.09.33.156.105.07.193.16.26.28.12.18.178.352.178.517 0 .166-.008.308-.025.426h-.802v.002zM16.28 36.278h.79l-.9 4.234h-.793l.902-4.234zm.302-1.84h.953l-.185.87h-.953l.185-.87zM20.294 40.512c-.006-.106-.003-.21.008-.312.01-.1.03-.208.05-.32-.135.174-.27.312-.405.413-.135.1-.267.18-.397.232-.13.053-.25.087-.363.1-.112.014-.214.022-.304.022-.242 0-.45-.032-.625-.096-.174-.064-.312-.152-.413-.265s-.17-.244-.202-.397c-.034-.152-.03-.314.008-.49.018-.084.047-.178.09-.286.042-.106.102-.215.18-.325.08-.11.178-.22.296-.33.118-.11.264-.21.44-.298.128-.063.263-.112.404-.15.14-.035.28-.064.422-.084.14-.02.272-.032.392-.038.12-.006.223-.008.308-.008.1 0 .19.002.27.004.08.003.18.01.304.02.03-.128.05-.242.068-.34.017-.098.028-.183.034-.253.006-.07.006-.132 0-.19-.006-.055-.025-.105-.06-.15-.055-.107-.154-.18-.294-.22-.14-.04-.267-.06-.38-.06-.202 0-.366.03-.49.09-.123.058-.22.127-.294.205-.073.08-.125.158-.156.24-.03.082-.052.143-.063.182h-.79c.033-.112.08-.237.142-.376.062-.137.17-.278.32-.425.1-.09.214-.164.337-.223.122-.06.25-.106.38-.14.128-.033.257-.056.387-.07.13-.014.25-.02.362-.02.15 0 .3.012.45.037.15.024.285.062.41.113.122.05.23.116.32.194.09.08.15.172.184.278.04.13.055.246.046.35-.008.104-.02.204-.038.3l-.464 2.023c-.006.017-.014.062-.025.135-.01.073-.027.16-.046.26-.02.102-.038.212-.055.33-.017.118-.03.23-.034.337l-.714.002zm.346-2.058c-.073-.01-.142-.018-.206-.02-.065-.004-.145-.005-.24-.005-.08 0-.205.003-.377.012-.172.008-.35.04-.532.093s-.35.14-.506.257c-.155.118-.255.284-.3.497-.017.067-.02.142-.013.227.008.085.036.164.085.24.048.077.122.14.224.19.1.052.24.077.422.077.405 0 .74-.152 1.004-.456.062-.073.112-.143.152-.21.04-.068.073-.143.1-.227.03-.084.057-.18.085-.29.026-.112.06-.24.1-.386zM22.656 36.26h.75l.185-.884.845-.253-.245 1.14h.945l-.127.58h-.945l-.54 2.54c-.006.05-.014.11-.025.177-.01.068-.004.13.02.185.026.056.073.104.14.143.067.04.17.06.312.06.08 0 .154-.005.228-.014.073-.008.127-.018.16-.03l-.127.616c-.078.01-.172.023-.282.034-.11.012-.237.017-.384.017-.366 0-.623-.062-.77-.19-.15-.126-.188-.363-.115-.712l.598-2.826h-.75l.128-.58zM26.122 36.278h.792l-.902 4.234h-.792l.902-4.234zm.304-1.84h.953l-.186.87h-.954l.186-.87zM27.985 36.278h.885l.633 3.357 2.033-3.357h.877l-2.758 4.234h-.8l-.87-4.234zM34.995 40.512c-.006-.106-.003-.21.008-.312.01-.1.03-.208.05-.32-.135.174-.27.312-.405.413-.135.1-.267.18-.397.232-.128.053-.25.087-.362.1-.112.014-.214.022-.304.022-.242 0-.45-.032-.624-.096s-.312-.152-.413-.265c-.1-.112-.17-.244-.202-.397-.034-.152-.03-.314.008-.49.017-.084.046-.178.09-.286.04-.106.1-.215.18-.325.08-.11.177-.22.295-.33.118-.11.264-.21.44-.298.128-.063.263-.112.404-.15.14-.035.28-.064.422-.084.14-.02.272-.032.392-.038.12-.006.223-.008.308-.008.1 0 .19.002.27.004.08.003.18.01.304.02.03-.128.05-.242.068-.34.017-.098.028-.183.034-.253.006-.07.006-.132 0-.19-.006-.055-.025-.105-.06-.15-.055-.107-.154-.18-.294-.22-.14-.04-.267-.06-.38-.06-.202 0-.366.03-.49.09-.123.058-.22.127-.294.205-.073.08-.125.158-.156.24-.03.082-.052.143-.063.182h-.792c.035-.112.082-.237.144-.376.062-.137.17-.278.32-.425.1-.09.214-.164.337-.223.124-.06.25-.106.38-.14.13-.033.26-.056.39-.07.128-.014.25-.02.36-.02.153 0 .303.012.452.037.15.024.285.062.41.113.122.05.23.116.32.194.09.08.15.172.184.278.04.13.055.246.046.35-.008.104-.02.204-.038.3l-.464 2.023c-.006.017-.014.062-.025.135-.012.073-.027.16-.046.26-.02.102-.04.212-.056.33-.017.118-.03.23-.034.337l-.715.002zm.346-2.058c-.072-.01-.14-.018-.205-.02-.065-.004-.145-.005-.24-.005-.08 0-.205.003-.377.012-.172.008-.35.04-.532.093s-.35.14-.506.257c-.154.118-.254.284-.3.497-.016.067-.02.142-.012.227.008.085.036.164.085.24.048.077.122.14.224.19.1.052.24.077.422.077.404 0 .74-.152 1.003-.456.062-.073.112-.143.152-.21.04-.068.073-.143.1-.227.03-.084.057-.18.085-.29l.1-.386zM43.675 34.43h.792l-1.147 5.407c-.006.023-.013.06-.02.114l-.03.178-.034.198c-.01.068-.02.13-.025.185h-.792l.127-.674c-.045.062-.102.132-.173.21-.07.08-.17.158-.3.236-.2.118-.402.2-.598.245-.197.045-.368.068-.515.068-.142 0-.31-.025-.507-.075-.197-.05-.376-.152-.536-.304-.16-.152-.28-.368-.36-.65-.078-.28-.066-.655.035-1.122.085-.405.21-.752.38-1.04.17-.29.362-.53.582-.718.22-.19.453-.328.7-.418s.495-.135.742-.135c.225 0 .41.03.557.09.146.058.262.127.346.205.084.08.144.158.18.236.037.08.063.14.08.185l.515-2.42zm-.802 3.906c.067-.31.09-.555.063-.738-.025-.183-.07-.33-.13-.443-.063-.112-.163-.212-.3-.3-.138-.086-.32-.13-.544-.13-.197 0-.368.035-.515.106-.147.07-.273.16-.38.27-.105.11-.197.232-.273.364-.075.132-.14.262-.19.387-.05.128-.09.243-.114.347-.025.104-.04.18-.046.223-.04.185-.065.376-.075.57-.012.193.007.367.058.522.05.155.142.28.274.38.132.098.32.148.56.148.31 0 .566-.073.768-.22.202-.146.363-.316.48-.51.118-.195.204-.385.257-.57.054-.186.09-.32.106-.404zM47.183 40.512c-.006-.106-.003-.21.008-.312.012-.1.03-.208.05-.32-.134.174-.27.312-.404.413-.135.1-.267.18-.397.232-.13.053-.252.087-.364.1-.112.014-.214.022-.304.022-.242 0-.45-.032-.624-.096s-.312-.152-.413-.265c-.1-.112-.17-.244-.202-.397-.034-.152-.03-.314.008-.49.018-.084.047-.178.09-.286.042-.106.102-.215.18-.325.08-.11.178-.22.296-.33.118-.11.264-.21.44-.298.128-.063.263-.112.404-.15.14-.035.28-.064.422-.084.14-.02.272-.032.392-.038.12-.006.223-.008.308-.008.1 0 .19.002.27.004.08.003.18.01.304.02.03-.128.05-.242.068-.34.017-.098.028-.183.034-.253.006-.07.006-.132 0-.19-.006-.055-.025-.105-.06-.15-.055-.107-.154-.18-.294-.22-.14-.04-.267-.06-.38-.06-.202 0-.366.03-.49.09-.123.058-.22.127-.294.205-.073.08-.125.158-.156.24-.03.082-.052.143-.063.182h-.79c.033-.112.08-.237.142-.376.062-.137.17-.278.32-.425.1-.09.214-.164.337-.223.122-.06.25-.106.38-.14.128-.033.257-.056.387-.07.13-.014.25-.02.362-.02.15 0 .3.012.45.037s.285.062.41.113c.122.05.23.116.32.194.09.08.15.172.184.278.04.13.055.246.046.35-.008.104-.02.204-.038.3l-.464 2.023c-.006.017-.014.062-.025.135-.012.073-.027.16-.046.26-.02.102-.038.212-.055.33-.017.118-.03.23-.034.337l-.715.002zm.345-2.058c-.073-.01-.142-.018-.206-.02-.065-.004-.145-.005-.24-.005-.08 0-.205.003-.377.012-.172.008-.35.04-.532.093s-.35.14-.506.257c-.154.118-.254.284-.3.497-.016.067-.02.142-.012.227.008.085.036.164.085.24.048.077.122.14.224.19.1.052.242.077.422.077.405 0 .74-.152 1.004-.456.062-.073.112-.143.152-.21.04-.068.073-.143.1-.227.03-.084.057-.18.085-.29l.1-.386zM56.25 36.066l-.004-.253c-.003-.118-.035-.236-.097-.354-.063-.12-.17-.223-.32-.313-.153-.09-.375-.135-.668-.135-.366 0-.68.083-.945.25-.264.165-.485.375-.662.627-.177.252-.318.525-.422.817-.104.293-.184.565-.24.818-.063.287-.1.572-.11.856-.013.285.022.54.105.768.08.228.218.412.41.553.19.14.46.21.81.21.184 0 .37-.026.552-.08.183-.053.353-.147.51-.282.142-.118.243-.236.305-.354s.104-.214.127-.287h.927c-.097.298-.238.553-.427.767-.19.214-.402.39-.64.527-.24.14-.496.24-.768.305-.273.065-.538.096-.797.096-.534 0-.948-.103-1.24-.31-.293-.21-.497-.47-.615-.78-.118-.313-.172-.646-.16-1 .01-.355.048-.68.11-.98.045-.213.108-.44.19-.682.08-.24.187-.48.316-.717s.282-.46.46-.678c.176-.216.38-.408.61-.574.23-.166.494-.298.79-.397.294-.097.622-.147.982-.147.214 0 .437.025.67.075.234.05.444.14.63.27.184.13.328.307.43.532.1.226.128.51.084.852l-.906.004zM58.612 34.422h1.172l1.93 5.035 1.063-5.035h.776l-1.29 6.09h-1.08l-2-5.17-1.097 5.17h-.766l1.292-6.09zM65.115 34.422h.844l-1.292 6.09h-.844l1.29-6.09zM68.666 37.973h2.117l-.135.64h-2.116l.134-.64zM78.282 36.066l-.004-.253c-.003-.118-.036-.236-.097-.354-.06-.12-.168-.223-.32-.313-.15-.09-.373-.135-.665-.135-.366 0-.68.083-.945.25-.264.165-.485.375-.662.627-.177.252-.318.525-.422.817-.104.293-.184.565-.24.818-.062.287-.098.572-.11.856-.01.285.024.54.106.768.08.228.218.412.41.553.19.14.46.21.808.21.186 0 .37-.026.553-.08.183-.053.353-.147.51-.282.14-.118.243-.236.305-.354s.104-.214.127-.287h.928c-.096.298-.237.553-.426.767s-.403.39-.64.527c-.24.14-.496.24-.768.305-.274.065-.54.096-.798.096-.534 0-.948-.103-1.24-.31-.292-.21-.496-.47-.614-.78s-.172-.646-.16-1c.01-.355.047-.68.11-.98.044-.213.107-.44.19-.682.08-.24.186-.48.315-.717.13-.235.283-.46.46-.678.177-.216.38-.408.61-.574.232-.166.495-.298.79-.397.295-.097.622-.147.983-.147.214 0 .437.025.67.075.233.05.444.14.63.27s.328.307.43.532c.1.226.128.51.083.852l-.908.004zM79.42 38.445c.056-.26.146-.523.27-.792.124-.27.293-.515.507-.734.214-.22.472-.4.776-.54.304-.142.664-.212 1.08-.212.422 0 .752.075.99.224.24.15.413.335.52.557.106.22.16.46.164.72.003.26-.018.497-.063.717-.067.31-.174.6-.32.877-.146.276-.33.516-.548.72-.22.206-.48.37-.776.49s-.626.182-.987.182c-.35 0-.64-.058-.877-.173-.236-.116-.42-.27-.552-.468-.132-.197-.213-.43-.24-.7-.03-.27-.01-.56.056-.87zm.835-.05c-.045.22-.065.428-.06.627.007.2.045.377.115.532.07.154.176.278.316.37.14.094.324.14.548.14.153 0 .31-.03.477-.09.166-.058.325-.153.473-.286.15-.132.285-.307.41-.523.122-.216.218-.485.286-.806.11-.53.085-.93-.08-1.203-.167-.273-.435-.41-.807-.41-.13 0-.275.025-.44.073-.162.048-.324.132-.484.253-.162.122-.31.288-.444.502-.134.215-.238.488-.31.82zM85.265 36.767l.1-.49h.794l-.144.684c.034-.043.087-.11.16-.193.074-.085.17-.17.29-.253.122-.085.27-.158.448-.223.177-.064.387-.096.63-.096.095 0 .225.014.39.042.167.03.323.09.47.19s.26.243.345.434c.084.19.09.45.016.776l-.607 2.876h-.81l.573-2.69c.03-.14.04-.274.038-.398-.002-.123-.04-.233-.113-.33-.08-.095-.18-.167-.304-.215-.123-.05-.253-.073-.388-.073-.147 0-.29.025-.434.075-.142.05-.277.13-.4.236-.123.107-.232.24-.325.397-.093.158-.164.343-.215.557l-.515 2.438h-.792l.792-3.743zM92.89 35.012c-.068-.006-.143-.01-.224-.013s-.162-.005-.24-.005c-.164 0-.29.018-.384.055s-.165.085-.22.143c-.053.06-.09.125-.113.198-.024.074-.043.148-.06.22l-.135.668h.987l-.127.574h-.987l-.776 3.66h-.785l.776-3.66h-.833l.127-.574h.835l.1-.48c.03-.146.057-.27.086-.376.03-.104.056-.194.085-.27.03-.075.06-.142.096-.2.035-.055.076-.11.12-.168.12-.135.274-.246.465-.333.19-.086.425-.13.7-.13.112 0 .226.008.342.02l.3.04-.138.632zM93.312 38.538c-.056.22-.08.422-.076.607.006.185.044.347.114.485s.174.245.312.32c.138.075.316.113.535.113.26 0 .496-.07.713-.21.216-.14.372-.363.467-.666h.793c-.034.106-.088.24-.16.4-.074.16-.203.323-.388.486-.056.05-.13.11-.224.177-.092.068-.204.13-.333.185-.13.056-.278.104-.447.143-.17.04-.36.06-.574.06-.67 0-1.123-.196-1.363-.583-.238-.388-.287-.917-.147-1.586.09-.417.228-.795.414-1.136.185-.34.47-.626.852-.856.11-.073.226-.13.344-.17s.232-.07.342-.092c.11-.023.21-.037.3-.042.09-.006.165-.008.227-.008.315 0 .573.042.77.127.2.085.354.195.46.333.108.138.18.293.217.464.036.172.05.346.042.523-.008.177-.03.347-.063.51l-.086.414h-3.042zm2.353-.557c.023-.1.04-.222.05-.366.012-.143-.003-.28-.046-.41-.043-.128-.124-.24-.245-.332-.12-.093-.302-.14-.544-.14-.128 0-.265.022-.407.064-.143.042-.28.112-.41.21-.13.1-.247.227-.354.385s-.19.355-.245.59h2.2zM101.324 34.43h.792l-1.147 5.407c-.007.023-.014.06-.022.114-.01.055-.018.113-.03.178l-.033.198c-.01.068-.02.13-.024.185h-.792l.127-.674c-.045.062-.103.132-.173.21-.07.08-.17.158-.3.236-.2.118-.4.2-.6.245-.196.045-.367.068-.513.068-.142 0-.31-.025-.507-.075-.196-.05-.375-.152-.535-.304-.16-.152-.28-.368-.358-.65-.08-.28-.067-.655.034-1.122.085-.405.21-.752.38-1.04.17-.29.362-.53.582-.718.22-.19.452-.328.7-.418.247-.09.495-.135.742-.135.225 0 .41.03.557.09.146.058.262.127.346.205.086.08.146.158.182.236.036.08.063.14.08.185l.512-2.42zm-.8 3.906c.066-.31.088-.555.062-.738-.025-.183-.07-.33-.13-.443-.063-.112-.163-.212-.3-.3-.138-.086-.32-.13-.544-.13-.197 0-.37.035-.515.106-.146.07-.273.16-.38.27-.106.11-.198.232-.274.364-.076.132-.14.262-.19.387-.05.128-.09.243-.114.347-.026.104-.042.18-.048.223-.04.185-.065.376-.076.57-.01.193.01.367.06.522.05.155.142.28.274.38.132.098.32.148.56.148.31 0 .566-.073.768-.22.202-.146.363-.316.48-.51.12-.195.204-.385.258-.57.055-.186.09-.32.107-.404zM103.155 38.538c-.056.22-.08.422-.076.607.005.185.043.347.113.485s.174.245.312.32c.138.075.316.113.535.113.26 0 .496-.07.713-.21.216-.14.372-.363.467-.666h.793c-.034.106-.088.24-.16.4-.074.16-.203.323-.388.486-.056.05-.13.11-.224.177-.09.068-.203.13-.332.185-.13.056-.278.104-.447.143s-.36.06-.573.06c-.67 0-1.123-.196-1.363-.583-.24-.388-.288-.917-.148-1.586.09-.417.228-.795.414-1.136.185-.34.47-.626.852-.856.112-.073.227-.13.345-.17s.232-.07.342-.092c.11-.023.21-.037.298-.042.09-.006.166-.008.228-.008.315 0 .573.042.77.127.2.085.354.195.46.333.108.138.18.293.217.464.036.172.05.346.042.523-.008.177-.03.347-.063.51l-.085.414h-3.042zm2.353-.557c.023-.1.04-.222.05-.366.012-.143-.003-.28-.046-.41-.042-.128-.123-.24-.244-.332-.12-.093-.302-.14-.544-.14-.13 0-.266.022-.408.064-.143.042-.28.112-.41.21-.13.1-.247.227-.354.385-.106.16-.188.355-.244.59h2.2zM107.7 37.138c.035-.146.06-.29.08-.434.02-.143.04-.285.064-.426h.8l-.16.818c.074-.146.158-.27.253-.37.096-.102.2-.185.31-.25.11-.065.218-.113.328-.148.11-.034.21-.056.3-.067.123-.016.23-.024.32-.024s.168.003.235.008l-.17.776c-.033-.01-.08-.023-.142-.034-.03-.006-.062-.008-.1-.008h-.128c-.236 0-.436.032-.6.096-.163.065-.3.155-.408.27-.11.116-.197.252-.262.41-.065.156-.117.325-.157.505l-.48 2.25h-.8l.718-3.372zM112.804 40.512c-.006-.106-.003-.21.01-.312.01-.1.027-.208.05-.32-.135.174-.27.312-.406.413-.134.1-.267.18-.396.232-.13.053-.25.087-.362.1-.112.014-.214.022-.304.022-.242 0-.45-.032-.624-.096s-.312-.152-.413-.265-.17-.244-.203-.397c-.034-.152-.03-.314.008-.49.017-.084.047-.178.09-.286.042-.106.1-.215.18-.325.08-.11.177-.22.295-.33.118-.11.264-.21.44-.298.13-.063.263-.112.404-.15.14-.035.282-.064.422-.084.14-.02.27-.032.392-.038.12-.006.224-.008.308-.008.1 0 .19.002.27.004.078.003.18.01.304.02.03-.128.05-.242.067-.34.017-.098.03-.183.034-.253.007-.07.007-.132 0-.19s-.024-.105-.058-.15c-.056-.107-.155-.18-.296-.22-.14-.04-.267-.06-.38-.06-.202 0-.366.03-.49.09-.123.058-.22.127-.294.205-.074.08-.126.158-.157.24-.03.082-.05.143-.063.182h-.792c.034-.112.08-.237.143-.376.062-.137.17-.278.32-.425.1-.09.214-.164.337-.223.124-.06.25-.106.38-.14.13-.033.26-.056.388-.07.13-.014.25-.02.362-.02.152 0 .302.012.452.037.148.024.285.062.408.113.124.05.23.116.32.194.09.08.153.172.186.278.04.13.055.246.046.35-.008.104-.02.204-.038.3l-.464 2.023c-.006.017-.013.062-.025.135-.01.073-.027.16-.046.26-.02.102-.04.212-.056.33-.017.118-.03.23-.034.337l-.716.002zm.345-2.058c-.075-.01-.143-.018-.207-.02-.065-.004-.145-.005-.24-.005-.08 0-.205.003-.377.012-.172.008-.35.04-.532.093-.183.054-.35.14-.506.257-.155.118-.255.284-.3.497-.017.067-.02.142-.013.227.008.085.036.164.085.24.048.077.122.14.223.19.1.052.242.077.422.077.405 0 .74-.152 1.004-.456.06-.073.11-.143.15-.21.04-.068.075-.143.102-.227.03-.084.056-.18.085-.29l.102-.386zM118.455 39.103c-.05.197-.13.384-.24.56-.11.178-.248.334-.413.47-.166.134-.353.244-.56.33-.21.083-.437.134-.684.15l-.355.387.148-.03c.055-.007.118-.012.19-.012.124 0 .224.02.3.06.076.038.133.088.173.147.04.06.063.123.07.194.01.07.008.135-.003.197l-.05.148c-.03.08-.085.167-.17.257s-.204.172-.36.245c-.153.073-.36.11-.62.11-.196 0-.35-.017-.46-.05s-.206-.073-.29-.118l.227-.313c.045.03.108.055.19.08.08.026.2.04.35.04.146 0 .264-.03.354-.086.09-.055.147-.14.17-.252.017-.073.013-.132-.01-.177-.02-.044-.054-.078-.095-.1-.042-.023-.087-.036-.135-.042-.047-.006-.09-.008-.122-.008-.062 0-.114.006-.156.017s-.094.03-.156.05l-.1-.142.556-.6c-.32-.038-.573-.124-.76-.256-.184-.133-.32-.296-.408-.49s-.13-.41-.13-.65c0-.238.024-.48.074-.73.1-.472.247-.857.434-1.155.19-.298.4-.534.633-.71.233-.173.467-.292.7-.357s.45-.097.645-.097c.067 0 .156.007.266.018.11.01.22.035.333.072s.22.09.328.156c.107.068.195.16.262.278.118.18.177.353.177.518 0 .166-.008.308-.024.426h-.802c.007-.05.013-.125.018-.224.006-.098-.01-.197-.047-.295-.035-.1-.1-.185-.193-.258-.093-.073-.236-.11-.426-.11-.274 0-.5.068-.678.202-.177.135-.32.293-.426.472-.106.18-.184.36-.232.536-.047.177-.08.305-.096.384-.05.22-.08.428-.092.628-.012.2.006.378.05.536.045.158.126.283.24.376.117.093.28.14.495.14.17 0 .318-.03.448-.086.13-.056.237-.13.325-.22.087-.09.16-.19.22-.3.06-.11.1-.214.122-.315-.002-.002.8-.002.8-.002zM121.71 40.512c-.005-.106-.002-.21.01-.312.01-.1.028-.208.05-.32-.134.174-.27.312-.405.413-.134.1-.267.18-.396.232-.13.053-.252.087-.363.1-.112.014-.214.022-.304.022-.24 0-.45-.032-.624-.096-.175-.064-.313-.152-.414-.265s-.17-.244-.202-.397c-.034-.152-.03-.314.008-.49.017-.084.047-.178.09-.286.042-.106.1-.215.18-.325.08-.11.177-.22.295-.33.118-.11.264-.21.44-.298.13-.063.263-.112.404-.15.142-.035.283-.064.423-.084.14-.02.27-.032.392-.038.12-.006.224-.008.308-.008.1 0 .19.002.27.004.08.003.18.01.305.02.03-.128.05-.242.067-.34.017-.098.03-.183.034-.253.005-.07.005-.132 0-.19-.007-.055-.026-.105-.06-.15-.056-.107-.155-.18-.296-.22-.14-.04-.267-.06-.38-.06-.202 0-.366.03-.49.09-.123.058-.22.127-.294.205-.074.08-.126.158-.157.24-.03.082-.05.143-.063.182h-.792c.034-.112.08-.237.143-.376.063-.137.17-.278.32-.425.102-.09.215-.164.338-.223.124-.06.25-.106.38-.14.13-.033.26-.056.388-.07.13-.014.25-.02.362-.02.152 0 .302.012.452.037.148.024.285.062.408.113.124.05.23.116.32.194.09.08.153.172.186.278.04.13.055.246.046.35-.008.104-.02.204-.038.3l-.464 2.023c-.006.017-.013.062-.025.135-.01.073-.027.16-.046.26-.02.102-.04.212-.055.33-.017.118-.03.23-.034.337l-.717.002zm.346-2.058c-.074-.01-.142-.018-.206-.02-.065-.004-.145-.005-.24-.005-.08 0-.204.003-.376.012-.172.008-.35.04-.532.093-.183.054-.35.14-.506.257-.155.118-.255.284-.3.497-.017.067-.02.142-.013.227.008.085.036.164.085.24.047.077.122.14.223.19.102.052.243.077.423.077.405 0 .74-.152 1.004-.456.062-.073.112-.143.152-.21.038-.067.073-.143.1-.227.03-.084.056-.18.085-.29l.1-.386zm-1.416-3.104c.062-.242.17-.44.33-.59.162-.157.35-.236.564-.236.034 0 .065.002.093.004.03.003.062.01.1.02.04.013.094.026.16.043.07.018.156.043.263.076l.16.042c.045.01.094.017.144.017.1 0 .184-.03.248-.085.065-.056.108-.132.13-.228h.346c-.03.164-.077.3-.148.41-.07.11-.148.196-.232.26-.084.066-.173.113-.266.14-.093.03-.176.042-.248.042-.08 0-.155-.008-.228-.025-.074-.018-.166-.046-.278-.086-.08-.023-.158-.046-.236-.072-.078-.025-.132-.038-.16-.038-.062 0-.125.02-.19.06-.065.038-.13.12-.2.243h-.353v.003zM123.946 38.445c.056-.26.146-.523.27-.792.124-.27.293-.515.507-.734.214-.22.472-.4.776-.54.303-.142.663-.212 1.08-.212.42 0 .75.075.99.224.24.15.412.335.52.557.105.22.16.46.163.72.003.26-.018.497-.063.717-.067.31-.174.6-.32.877-.146.276-.33.516-.548.72-.22.206-.48.37-.776.49s-.626.182-.987.182c-.35 0-.642-.058-.878-.173-.236-.116-.42-.27-.552-.468-.132-.197-.213-.43-.24-.7-.032-.27-.012-.56.056-.87zm.835-.05c-.044.22-.064.428-.058.627.006.2.044.377.114.532.07.154.176.278.316.37.14.094.324.14.548.14.153 0 .31-.03.477-.09.165-.058.324-.153.472-.286.148-.132.284-.307.408-.523.123-.216.22-.485.287-.806.112-.53.086-.93-.08-1.203-.166-.273-.434-.41-.806-.41-.13 0-.276.025-.44.073-.163.048-.325.132-.485.253-.16.122-.31.288-.443.502-.134.215-.238.488-.31.82zM24.072 44.52h1.172l1.93 5.034 1.063-5.035h.776l-1.29 6.088h-1.08l-1.998-5.17-1.097 5.17h-.767l1.292-6.09zM31.866 50.608c-.006-.106-.003-.21.008-.312.01-.1.03-.208.05-.32-.135.174-.27.312-.405.413-.136.1-.268.178-.398.23-.13.054-.25.088-.363.102-.113.013-.215.02-.305.02-.242 0-.45-.03-.624-.095-.173-.065-.31-.153-.412-.266s-.17-.243-.202-.396c-.034-.152-.03-.314.008-.49.017-.084.046-.178.09-.286.04-.106.1-.215.18-.325.08-.11.177-.22.295-.33.117-.11.263-.21.438-.298.13-.062.264-.11.405-.148.14-.036.28-.065.422-.085.14-.02.272-.032.392-.038.12-.006.223-.008.308-.008.1 0 .19.002.27.004.08.003.18.01.304.02.028-.128.05-.242.067-.34.017-.098.028-.183.034-.253.007-.07.007-.133 0-.19-.005-.056-.024-.106-.058-.152-.056-.106-.155-.18-.295-.22-.14-.04-.267-.06-.38-.06-.202 0-.366.03-.49.09-.123.06-.22.128-.294.206-.073.08-.125.16-.156.242-.03.08-.052.142-.063.18h-.792c.034-.11.08-.236.143-.375.062-.138.17-.28.32-.426.1-.09.214-.163.337-.222.123-.06.25-.106.38-.14.13-.033.258-.056.388-.07.13-.014.25-.02.362-.02.152 0 .302.012.45.037.15.025.286.063.41.114.123.05.23.115.32.193.09.08.152.172.185.278.04.13.055.247.046.35-.008.105-.02.205-.038.3l-.464 2.024c-.005.017-.013.062-.024.135-.012.072-.027.16-.046.26-.02.1-.038.21-.055.33-.017.117-.03.23-.034.336l-.714.002zm.346-2.057c-.073-.01-.142-.017-.206-.02s-.145-.004-.24-.004c-.08 0-.205.004-.377.013-.173.007-.35.038-.533.09-.183.055-.35.14-.506.258-.153.118-.253.284-.298.497-.017.068-.02.143-.013.228.007.085.035.164.084.24.048.077.122.14.224.19.1.052.24.077.422.077.405 0 .74-.152 1.004-.456.062-.073.112-.143.152-.21.04-.068.073-.143.1-.227.03-.085.057-.182.085-.29.03-.112.062-.24.102-.386zM36.994 47.732c.006-.05.01-.125.017-.224.007-.098-.01-.197-.045-.295-.037-.098-.1-.184-.194-.257-.092-.073-.234-.11-.425-.11-.276 0-.5.068-.68.202-.176.135-.318.293-.425.472-.106.18-.184.36-.23.536-.05.177-.08.305-.098.384-.05.22-.08.428-.093.628-.012.2.005.378.05.535.043.158.124.283.24.376s.28.138.494.138c.17 0 .318-.03.447-.085s.238-.13.326-.22c.087-.09.16-.19.22-.3.06-.11.1-.214.122-.315h.8c-.05.208-.136.403-.256.586-.12.183-.27.343-.447.48-.177.138-.378.247-.603.33-.225.08-.467.12-.725.12-.073 0-.164-.005-.274-.016-.11-.012-.223-.035-.34-.072-.12-.036-.237-.09-.356-.164s-.22-.17-.304-.295c-.045-.073-.09-.157-.13-.253-.043-.096-.074-.208-.094-.337-.02-.13-.026-.278-.018-.447.008-.17.035-.363.08-.582.09-.44.23-.806.414-1.1.185-.296.39-.53.615-.705.226-.174.458-.298.697-.37.24-.074.465-.11.68-.11.066 0 .155.005.265.016.11.01.22.034.333.07.112.038.222.09.33.157.105.068.193.16.26.278.12.18.178.353.178.518 0 .166-.008.308-.025.426h-.802v.002zM39.103 46.375h.792l-.902 4.234H38.2l.903-4.235zm.303-1.84h.953l-.186.87h-.953l.186-.87zM40.663 48.542c.056-.26.146-.523.27-.792.123-.27.293-.514.506-.734.213-.22.47-.4.775-.54.304-.14.663-.21 1.08-.21.42 0 .75.074.99.223.24.148.412.334.518.556.106.222.162.462.164.72.003.26-.018.498-.063.718-.067.31-.174.6-.32.877-.146.277-.33.517-.548.722-.22.205-.478.368-.776.49-.3.12-.627.18-.987.18-.35 0-.64-.057-.877-.172-.236-.116-.42-.27-.553-.468-.132-.197-.212-.43-.24-.7-.027-.27-.008-.56.06-.87zm.836-.05c-.046.22-.066.428-.06.627.006.2.044.376.114.53.07.155.176.28.316.372.14.093.324.14.548.14.152 0 .31-.03.476-.09.166-.06.324-.154.472-.287.15-.132.285-.306.41-.523.122-.216.22-.485.286-.806.112-.528.086-.93-.08-1.202-.167-.273-.435-.41-.807-.41-.13 0-.276.025-.44.073-.163.048-.324.132-.484.253s-.307.288-.442.502c-.133.215-.236.488-.31.82zM46.508 46.864l.1-.49h.793l-.142.684c.034-.044.087-.11.16-.194.073-.085.17-.17.29-.253.122-.084.27-.157.448-.222.177-.065.387-.097.628-.097.096 0 .226.015.392.043.166.03.322.09.468.19.146.098.262.243.345.434.084.19.09.45.016.776l-.606 2.875h-.81l.575-2.69c.03-.14.04-.274.038-.398-.003-.123-.04-.233-.114-.33-.08-.095-.18-.167-.305-.215-.124-.048-.253-.072-.388-.072-.146 0-.29.025-.434.075-.143.05-.277.13-.4.236-.125.107-.233.24-.326.397-.093.16-.164.344-.216.558l-.514 2.438h-.792l.794-3.742zM53.425 50.608c-.006-.106-.003-.21.008-.312.01-.1.03-.208.05-.32-.135.174-.27.312-.405.413-.135.1-.267.178-.397.23-.13.054-.25.088-.362.102-.112.013-.214.02-.304.02-.242 0-.45-.03-.625-.095s-.313-.153-.414-.266c-.1-.11-.17-.243-.202-.396-.034-.152-.03-.314.008-.49.017-.084.046-.178.09-.286.04-.106.1-.215.18-.325.08-.11.177-.22.295-.33.118-.11.264-.21.44-.298.128-.062.263-.11.404-.148.14-.036.282-.065.423-.085.14-.02.272-.032.392-.038.12-.006.223-.008.308-.008.1 0 .19.002.27.004.08.003.18.01.304.02.03-.128.05-.242.068-.34.017-.098.028-.183.034-.253.005-.07.005-.133 0-.19-.007-.056-.026-.106-.06-.152-.056-.106-.155-.18-.295-.22-.14-.04-.267-.06-.38-.06-.202 0-.366.03-.49.09-.123.06-.22.128-.294.206-.072.08-.124.16-.155.242-.03.08-.052.142-.063.18h-.792c.034-.11.08-.236.143-.375.062-.138.17-.28.32-.426.1-.09.214-.163.337-.222s.25-.106.38-.14c.13-.033.258-.056.388-.07.13-.014.25-.02.362-.02.152 0 .302.012.45.037.15.025.286.063.41.114.123.05.23.115.32.193.09.08.152.172.185.278.04.13.055.247.046.35s-.02.205-.037.3l-.464 2.024c-.007.017-.015.062-.026.135-.01.072-.027.16-.046.26-.02.1-.038.21-.055.33-.017.117-.03.23-.034.336l-.715.002zm.346-2.057c-.072-.01-.14-.017-.205-.02-.065-.003-.145-.004-.24-.004-.08 0-.205.004-.377.013-.172.007-.35.038-.532.09-.183.055-.35.14-.506.258-.154.118-.254.284-.3.497-.016.068-.02.143-.012.228.008.085.036.164.084.24.048.077.122.14.224.19.1.052.242.077.422.077.405 0 .74-.152 1.004-.456.062-.073.112-.143.152-.21.04-.068.073-.143.1-.227.03-.085.057-.182.086-.29.028-.112.06-.24.1-.386zM56.84 44.527h.792l-1.29 6.08h-.792l1.29-6.08zM64.45 44.527h.79l-1.146 5.407c-.006.023-.013.06-.02.114-.01.054-.02.112-.03.177s-.023.13-.034.198c-.01.068-.02.13-.025.185h-.792l.127-.675c-.045.062-.102.132-.173.21-.07.08-.17.158-.3.236-.2.117-.4.2-.598.244-.198.045-.37.068-.516.068-.14 0-.31-.025-.506-.075-.197-.05-.376-.152-.536-.304s-.28-.368-.36-.65c-.078-.28-.066-.655.035-1.122.085-.404.21-.75.38-1.04.17-.29.362-.528.582-.717.22-.19.452-.328.7-.418s.494-.135.74-.135c.226 0 .412.03.558.09.146.058.262.127.346.205.085.08.145.158.18.236.038.08.064.142.082.186l.513-2.42zm-.802 3.905c.067-.31.09-.555.064-.738-.025-.183-.07-.33-.13-.443s-.163-.21-.3-.298c-.138-.087-.32-.13-.544-.13-.197 0-.368.034-.515.105-.146.07-.273.16-.38.27-.105.11-.197.23-.273.363-.075.132-.14.262-.19.387-.05.127-.09.242-.114.346-.025.104-.04.18-.046.223-.04.185-.065.376-.075.57-.01.193.008.367.06.522.05.155.14.28.273.38s.32.148.56.148c.31 0 .566-.073.768-.22.202-.146.363-.316.48-.51.118-.195.204-.385.257-.57.053-.185.087-.32.105-.404zM67.957 50.608c-.006-.106-.003-.21.01-.312.01-.1.027-.208.05-.32-.135.174-.27.312-.406.413-.133.1-.266.178-.395.23-.13.054-.25.088-.362.102-.112.013-.214.02-.304.02-.243 0-.45-.03-.625-.095-.174-.065-.312-.153-.413-.266s-.17-.243-.202-.396c-.034-.152-.03-.314.008-.49.017-.084.047-.178.09-.286.042-.106.1-.215.18-.325.08-.11.177-.22.295-.33.118-.11.264-.21.44-.298.13-.062.263-.11.404-.148.14-.036.282-.065.422-.085.14-.02.27-.032.39-.038.122-.006.225-.008.31-.008.1 0 .19.002.27.004.078.003.18.01.304.02.03-.128.05-.242.067-.34.018-.098.03-.183.035-.253.006-.07.006-.133 0-.19-.006-.056-.025-.106-.06-.152-.055-.106-.154-.18-.295-.22-.14-.04-.267-.06-.38-.06-.202 0-.365.03-.49.09-.123.06-.22.128-.294.206-.074.08-.126.16-.157.242-.032.08-.052.142-.064.18h-.792c.034-.11.08-.236.143-.375.062-.138.17-.28.32-.426.1-.09.214-.163.337-.222.124-.06.25-.106.38-.14.13-.033.26-.056.388-.07.13-.014.25-.02.362-.02.152 0 .302.012.452.037.148.025.285.063.408.114.124.05.23.115.32.193.09.08.153.172.186.278.04.13.055.247.046.35s-.02.205-.038.3l-.464 2.024c-.006.017-.013.062-.025.135l-.047.26c-.02.1-.04.21-.055.33-.017.117-.03.23-.034.336l-.717.002zm.346-2.057c-.074-.01-.142-.017-.206-.02-.065-.003-.145-.004-.24-.004-.08 0-.204.004-.376.013-.17.007-.348.038-.53.09-.184.055-.352.14-.507.258-.155.118-.255.284-.3.497-.017.068-.02.143-.013.228.008.085.036.164.085.24.047.077.122.14.223.19.1.052.242.077.422.077.405 0 .74-.152 1.004-.456.062-.073.112-.143.152-.21.04-.068.074-.143.1-.227.03-.085.057-.182.086-.29l.1-.386zM73.7 44.52h.845l-1.29 6.088h-.845l1.29-6.09zM75.573 46.864l.1-.49h.794l-.143.684c.034-.044.087-.11.16-.194.074-.085.17-.17.29-.253.122-.084.27-.157.448-.222s.387-.097.63-.097c.095 0 .225.015.39.043.167.03.323.09.47.19.145.098.26.243.345.434.085.19.09.45.017.776l-.607 2.876h-.81l.574-2.692c.03-.14.04-.273.04-.397-.004-.122-.04-.232-.115-.328-.08-.096-.18-.168-.304-.216-.122-.048-.252-.072-.386-.072-.147 0-.29.025-.434.075-.143.05-.278.128-.4.235-.124.107-.233.24-.326.397-.093.158-.164.343-.215.557l-.516 2.437h-.792l.79-3.743zM84.135 44.527h.792l-1.147 5.407c-.006.023-.013.06-.02.114-.01.054-.02.112-.03.177l-.034.198c-.01.068-.02.13-.025.185h-.792l.127-.675c-.045.062-.103.132-.173.21-.07.08-.17.158-.3.236-.2.117-.402.2-.6.244-.196.045-.367.068-.513.068-.142 0-.31-.025-.507-.075-.196-.05-.375-.152-.535-.304s-.28-.368-.358-.65c-.08-.28-.067-.655.034-1.122.085-.404.21-.75.38-1.04.17-.29.362-.528.582-.717.22-.19.452-.328.7-.418.247-.09.495-.135.742-.135.225 0 .41.03.557.09.146.058.262.127.346.205.086.08.146.158.182.236.036.08.063.142.08.186l.513-2.42zm-.802 3.905c.067-.31.09-.555.063-.738-.025-.183-.07-.33-.13-.443s-.163-.21-.3-.298c-.138-.087-.32-.13-.544-.13-.197 0-.37.034-.515.105-.146.07-.273.16-.38.27-.106.11-.198.23-.274.363-.076.132-.14.262-.19.387-.05.127-.09.242-.114.346-.026.104-.042.18-.048.223-.04.185-.065.376-.076.57-.01.193.01.367.06.522.05.155.142.28.274.38.132.098.32.148.56.148.31 0 .566-.073.768-.22s.363-.316.48-.51c.12-.195.204-.385.258-.57.055-.185.09-.32.107-.404zM86.69 46.375l-.58 2.724c-.024.1-.038.207-.044.32-.006.11.014.213.06.303.044.09.118.164.223.223.103.06.256.09.46.09.195 0 .39-.038.585-.11.194-.074.364-.195.51-.363.118-.13.2-.267.245-.413.044-.146.078-.273.1-.38l.516-2.395h.818l-.734 3.44c-.006.024-.013.066-.024.128-.012.062-.023.132-.034.21-.01.08-.024.16-.042.246l-.042.21h-.827l.136-.726c-.05.074-.116.155-.195.245-.078.09-.176.172-.294.248-.118.075-.262.14-.43.194-.168.054-.365.08-.59.08-.264 0-.485-.035-.662-.106-.177-.07-.315-.17-.413-.295-.098-.126-.16-.277-.185-.455-.025-.177-.015-.37.03-.578l.606-2.843h.81zm2.607-2.008l-1.274 1.214h-.548l.945-1.213h.877zM90.94 49.35c-.016.08-.023.165-.02.254.003.09.03.173.085.25.054.075.135.138.244.19.11.05.26.075.45.075.164 0 .31-.02.444-.056.132-.037.252-.108.358-.216.118-.118.19-.25.22-.397.022-.1.022-.184 0-.252-.023-.068-.068-.122-.135-.164-.067-.042-.156-.08-.266-.114-.11-.034-.24-.068-.39-.1-.21-.052-.408-.105-.596-.16-.188-.057-.346-.13-.472-.22-.127-.09-.217-.206-.274-.347-.056-.14-.062-.32-.017-.54.04-.19.118-.367.233-.527.116-.16.257-.295.426-.405.168-.11.36-.194.573-.256.214-.062.444-.093.692-.093.134 0 .277.013.425.035.15.023.288.06.418.11s.243.118.34.202c.1.084.17.19.207.312.03.117.037.226.025.328-.01.1-.03.197-.05.287h-.81c.04-.158.04-.283.004-.376-.036-.094-.093-.164-.17-.21-.074-.05-.16-.078-.25-.09-.094-.01-.177-.017-.25-.017-.03 0-.09.003-.185.008-.097.007-.2.03-.31.07-.11.038-.212.1-.308.18-.096.08-.16.2-.195.35-.017.096-.01.176.017.24.03.066.07.118.122.157.054.04.112.07.173.09.06.02.12.037.176.054.275.07.503.126.683.174.178.048.324.092.433.135.11.04.197.084.262.126.065.042.122.09.173.148.096.112.152.237.17.375.016.137.01.273-.018.408-.05.236-.152.45-.304.64-.153.192-.318.336-.497.43-.21.113-.426.19-.65.23-.226.038-.448.058-.667.058-.214 0-.414-.024-.604-.072-.19-.048-.35-.125-.48-.232-.133-.106-.226-.25-.28-.426-.053-.177-.05-.392.005-.645h.837zM94.686 46.358h.75l.186-.885.844-.253-.245 1.14h.945l-.127.58h-.944l-.54 2.54c-.006.05-.013.11-.024.177-.012.068-.005.13.02.185.026.056.073.104.14.143s.172.06.312.06c.078 0 .154-.005.227-.014.073-.007.126-.017.16-.028l-.127.615c-.08.01-.173.023-.283.034-.11.012-.237.018-.384.018-.366 0-.623-.063-.772-.19-.15-.127-.187-.364-.113-.713l.6-2.826h-.75l.126-.582zM98 47.235c.035-.146.06-.29.08-.434.02-.142.04-.284.064-.425h.8l-.16.818c.074-.146.158-.27.253-.37.096-.102.2-.185.31-.25.11-.065.218-.113.328-.148.11-.034.21-.056.3-.067.123-.017.23-.025.32-.025s.168.003.235.008l-.17.777c-.033-.01-.08-.023-.142-.034-.03-.006-.062-.008-.1-.008h-.128c-.236 0-.436.032-.6.096-.163.066-.3.156-.408.27-.11.117-.197.253-.262.41-.065.157-.117.326-.157.506l-.48 2.252h-.8L98 47.235zM101.434 46.375h.792l-.902 4.234h-.792l.902-4.235zm.304-1.84h.953l-.184.87h-.953l.185-.87zM105.45 50.608c-.007-.106-.004-.21.008-.312.01-.1.028-.208.05-.32-.134.174-.27.312-.405.413-.134.1-.267.178-.396.23-.13.054-.25.088-.362.102-.112.013-.214.02-.304.02-.24 0-.448-.03-.623-.095-.174-.065-.312-.153-.413-.266s-.17-.243-.203-.396c-.033-.152-.03-.314.01-.49.016-.084.046-.178.088-.286.043-.106.102-.215.18-.325.08-.11.178-.22.296-.33.118-.11.264-.21.44-.298.13-.062.263-.11.404-.148.14-.036.282-.065.422-.085.14-.02.27-.032.392-.038.12-.006.224-.008.308-.008.1 0 .19.002.27.004.08.003.18.01.305.02.03-.128.05-.242.067-.34.017-.098.03-.183.034-.253.006-.07.006-.133 0-.19-.006-.056-.025-.106-.06-.152-.055-.106-.154-.18-.295-.22-.14-.04-.266-.06-.38-.06-.2 0-.364.03-.488.09s-.222.128-.295.206c-.074.08-.126.16-.157.242-.03.08-.05.142-.063.18h-.792c.034-.11.08-.236.143-.375.062-.138.17-.28.32-.426.1-.09.214-.163.337-.222.124-.06.25-.106.38-.14.13-.033.26-.056.388-.07.13-.014.25-.02.362-.02.152 0 .302.012.452.037.148.025.285.063.408.114.124.05.23.115.32.193.09.08.153.172.186.278.04.13.056.247.047.35-.008.105-.02.205-.038.3l-.465 2.024c-.006.017-.013.062-.025.135-.01.072-.027.16-.046.26-.02.1-.04.21-.055.33-.018.117-.03.23-.035.336l-.716.002zm.345-2.057c-.074-.01-.142-.017-.206-.02-.066-.003-.146-.004-.24-.004-.08 0-.205.004-.377.013-.172.007-.35.038-.532.09-.182.055-.35.14-.505.258-.155.118-.255.284-.3.497-.017.068-.02.143-.013.228.008.085.036.164.085.24.047.077.122.14.223.19.1.052.242.077.422.077.405 0 .74-.152 1.004-.456.062-.073.112-.143.152-.21s.074-.143.1-.227c.03-.085.057-.182.086-.29l.1-.386z"/></g></svg>