<svg xmlns="http://www.w3.org/2000/svg" width="221.053" height="90.789" viewBox="0 0 221.053 90.789"><path fill="#17BDEF" d="M125.848 69.935h-14.04c-3.505 0-6.357-2.85-6.357-6.353v-6.88c0-3.504 2.852-6.353 6.357-6.353h14.04c1.915 0 3.464-1.552 3.464-3.464 0-1.913-1.548-3.467-3.462-3.467h-14.04c-7.323 0-13.282 5.96-13.282 13.28v6.88c0 7.32 5.958 13.28 13.28 13.28h14.042c1.914 0 3.463-1.55 3.463-3.463 0-1.91-1.548-3.462-3.462-3.462"/><path fill="#0FBDE7" d="M112.296 63.603h12.798v-.007c1.84-.09 3.295-1.6 3.295-3.454 0-1.857-1.457-3.364-3.296-3.454v-.008h-12.968v.008c-1.834.09-3.295 1.597-3.295 3.454 0 1.854 1.462 3.365 3.296 3.454v.007h.17z"/><path fill="#D6DC28" d="M92.363 43.42h-16c-.654 0-1.263.188-1.777.512 1.462.895 2.082 2.753 1.375 4.368l-2.93 6.723v18.374c0 1.913 1.55 3.463 3.465 3.463 1.91 0 3.463-1.55 3.463-3.463V50.08h12.406c1.937 0 3.51 1.573 3.51 3.508 0 1.933-1.573 3.507-3.51 3.507h-7.266c-1.836 0-3.33 1.49-3.33 3.33s1.493 3.33 3.33 3.33h2.76l4.95 10.997c.574 1.32 1.865 2.107 3.22 2.107.47 0 .946-.093 1.404-.294 1.78-.774 2.588-2.846 1.816-4.62l-3.887-8.64c1.155-.358 2.225-.915 3.164-1.633v-4.97c0-3.028 1.017-5.818 2.728-8.054-1.74-3.117-5.074-5.23-8.89-5.23"/><path fill="#3BB14A" d="M101.25 48.65c-1.71 2.238-2.727 5.027-2.727 8.05v4.972c2.437-1.858 4.007-4.79 4.007-8.082 0-1.793-.463-3.478-1.28-4.94"/><path fill="#F7B419" d="M45.095 43.42c-1.912 0-3.463 1.554-3.463 3.466V70.3c1.087.583 1.83 1.73 1.83 3.054 0 .918-.35 1.75-.932 2.37.632.697 1.548 1.136 2.565 1.136 1.912 0 3.463-1.55 3.463-3.463v-20.16L46.404 48.3c-.63-1.442-.204-3.083.94-4.053-.602-.516-1.39-.826-2.25-.826"/><path fill="#9B2478" d="M72.77 43.42c-1.345 0-2.628.782-3.198 2.097l-6.196 14.21.026.01-2.22 5.082-2.215-5.082.025-.01-6.2-14.21c-.57-1.316-1.85-2.097-3.193-2.097-.468 0-.94.094-1.393.292-.32.14-.61.32-.863.536.746.638 1.215 1.585 1.215 2.638v6.352l3.247 7.448-.025.01 6.2 14.214c.166.382.403.712.677.998l.007.01c.146.154.308.29.48.417l.052.04c.17.116.348.214.532.3l.065.036.02.007c.176.075.355.128.54.174.047.012.092.03.136.04.14.03.285.036.425.045.09.008.18.024.266.024.09 0 .18-.018.268-.025.14-.01.283-.016.425-.046.048-.012.092-.03.142-.04.178-.047.357-.097.53-.17l.02-.008.073-.042c.182-.084.358-.18.528-.293l.058-.046c.17-.123.327-.258.475-.41l.01-.014c.276-.287.51-.614.675-.995L70.59 60.7l-.025-.01 2.468-5.665v-8.137l.008-.073-.004-.06c0-1.19.62-2.23 1.55-2.82-.133-.082-.273-.157-.42-.222-.458-.195-.93-.29-1.397-.29"/><path fill="#892426" d="M74.586 43.934c-.933.59-1.557 1.633-1.557 2.818l.007.06-.008.072v8.14l2.93-6.724c.705-1.615.087-3.47-1.374-4.366"/><path fill="#9D2223" d="M47.343 44.25c-1.14.97-1.568 2.606-.937 4.05l2.152 4.94v-6.355c0-1.055-.47-2-1.215-2.635"/><path fill="#F05B2B" d="M16.142 43.42c-1.912 0-3.463 1.554-3.463 3.466v16.65c0 7.32 5.958 13.28 13.28 13.28H40c.995 0 1.895-.42 2.527-1.093-.557-.614-.897-1.43-.897-2.327V70.3c-.484-.26-1.04-.41-1.63-.41h-7.048v-.004l-.115.002H25.96c-3.502 0-6.355-2.848-6.355-6.35V46.885c0-1.912-1.55-3.465-3.463-3.465"/><path fill="#EE4F25" d="M41.633 70.298v3.1c0 .894.335 1.712.895 2.325.58-.617.936-1.45.936-2.367 0-1.325-.74-2.473-1.83-3.058"/><path fill="#184A8F" d="M24.945 33.513H18.64c-1.57 0-2.85-1.28-2.85-2.853v-3.085c0-1.573 1.28-2.854 2.85-2.854h2.727c.86 0 1.557-.696 1.557-1.553 0-.86-.696-1.554-1.557-1.554H18.64c-3.287 0-5.96 2.672-5.96 5.962v3.085c0 3.288 2.673 5.962 5.96 5.962h6.305c.858 0 1.557-.696 1.557-1.557 0-.856-.7-1.552-1.557-1.552M28.95 24.722h5.95c1.573 0 2.85 1.28 2.85 2.852v3.086c0 1.574-1.277 2.85-2.85 2.85h-5.95c-.858 0-1.557.697-1.557 1.558 0 .858.698 1.554 1.557 1.554h5.95c3.286 0 5.96-2.674 5.96-5.96v-3.087c0-3.288-2.674-5.96-5.96-5.96h-5.95c-.858 0-1.557.696-1.557 1.552 0 .857.698 1.555 1.557 1.555M67.95 33.513H62c-1.575 0-2.853-1.28-2.853-2.853v-3.085c0-1.573 1.278-2.854 2.854-2.854h5.95c.862 0 1.558-.694 1.558-1.553 0-.86-.696-1.554-1.557-1.554H62c-3.288 0-5.96 2.672-5.96 5.962v3.085c0 3.288 2.674 5.962 5.96 5.962h5.95c.862 0 1.558-.696 1.558-1.554 0-.86-.696-1.555-1.557-1.555M97.724 33.513H91.77c-1.572 0-2.85-1.28-2.85-2.853v-3.085c0-1.573 1.278-2.854 2.85-2.854h5.954c.858 0 1.553-.694 1.553-1.553 0-.86-.696-1.554-1.553-1.554H91.77c-3.286 0-5.963 2.672-5.963 5.962v3.085c0 3.288 2.677 5.962 5.964 5.962h5.954c.858 0 1.553-.696 1.553-1.554 0-.86-.695-1.555-1.553-1.555M51.995 23.174v7.476c0 1.573-1.28 2.855-2.85 2.855h-1.543c-1.573 0-2.853-1.282-2.853-2.855v-7.476c0-.858-.697-1.553-1.558-1.553-.855 0-1.55.696-1.55 1.554v7.476c0 3.288 2.67 5.96 5.96 5.96h1.543c3.286 0 5.96-2.672 5.96-5.96v-7.476c0-.858-.698-1.553-1.553-1.553-.858 0-1.557.696-1.557 1.554M74.033 35.058v-7.474c0-1.574 1.283-2.854 2.853-2.854h1.543c1.575 0 2.853 1.28 2.853 2.854v7.474c0 .86.696 1.554 1.554 1.554.86 0 1.554-.695 1.554-1.554v-7.474c0-3.288-2.674-5.962-5.96-5.962h-1.543c-3.286 0-5.964 2.674-5.964 5.962v7.474c0 .86.7 1.554 1.557 1.554s1.553-.695 1.553-1.554M103.44 35.058v-7.474c0-1.574 1.28-2.854 2.853-2.854h1.54c1.573 0 2.853 1.28 2.853 2.854v7.474c0 .86.7 1.554 1.554 1.554.86 0 1.557-.695 1.557-1.554v-7.474c0-3.288-2.674-5.962-5.964-5.962h-1.54c-3.287 0-5.965 2.674-5.965 5.962v7.474c0 .86.7 1.554 1.557 1.554.858 0 1.554-.695 1.554-1.554M126.37 28.34v2.31c0 1.575-1.28 2.854-2.853 2.854h-1.543c-1.57 0-2.85-1.28-2.85-2.855v-2.31c0-.86-.696-1.553-1.554-1.553-.858 0-1.557.692-1.557 1.552v2.31c0 3.288 2.674 5.96 5.96 5.96h1.544c3.286 0 5.967-2.672 5.967-5.96v-2.31c0-.86-.7-1.553-1.56-1.553-.855 0-1.553.69-1.553 1.552"/><path fill="#184A8F" d="M119.124 29.89v-2.31c0-1.57 1.28-2.854 2.853-2.854h1.54c1.573 0 2.854 1.283 2.854 2.855v2.31c0 .862.7 1.558 1.554 1.558.858 0 1.557-.696 1.557-1.557v-2.31c0-3.287-2.674-5.96-5.963-5.96h-1.54c-3.29 0-5.967 2.673-5.967 5.96v2.31c0 .862.7 1.558 1.56 1.558.855 0 1.554-.696 1.554-1.557M25.02 27.562h-5.745c-.86 0-1.557.694-1.557 1.555 0 .858.696 1.554 1.557 1.554h5.746v-3.108z"/><path fill="#184A8F" d="M19.2 30.67H26.5c.854 0 1.553-.695 1.553-1.555 0-.857-.7-1.554-1.553-1.554H19.2v3.11zM95.343 37.313H91.55c-.858 0-1.553.694-1.553 1.555 0 .858.695 1.553 1.553 1.553h3.793v-3.107z"/><path fill="#184A8F" d="M91.475 40.422h3.792c.86 0 1.55-.696 1.55-1.557 0-.856-.69-1.553-1.55-1.553h-3.792v3.11zM108.998 17.715h-3.79c-.86 0-1.556.696-1.556 1.557 0 .858.695 1.554 1.557 1.554h3.788v-3.11z"/><path fill="#184A8F" d="M105.13 20.825h3.793c.86 0 1.554-.696 1.554-1.557 0-.856-.693-1.554-1.554-1.554h-3.793v3.11zM22.092 21.61H20.55v3.112h1.542c1.573 0 2.853 1.277 2.853 2.853v1.54h3.11v-1.54c0-3.288-2.677-5.964-5.963-5.964"/><path fill="#808184" d="M143.784 45.01c2.286 0 3.54 1.437 3.54 2.287 0 .56-.306.9-.9.9-1.156 0-.815-1.582-2.64-1.582-1.252 0-2.286 1.082-2.286 2.98 0 1.592.635 2.978 2.36 2.978 1.57 0 1.534-1.677 2.495-1.677.483 0 .973.28.973.766 0 1.264-1.534 2.518-3.468 2.518-2.736 0-4.354-1.57-4.354-4.586 0-2.467 1.46-4.583 4.28-4.583M151.36 47.454c2.14 0 3.283 1.46 3.283 3.333 0 1.776-.863 3.345-3.284 3.345-2.42 0-3.285-1.57-3.285-3.345 0-1.873 1.143-3.333 3.284-3.333m0 5.363c1.058 0 1.508-.947 1.508-2.03 0-1.156-.475-2.02-1.51-2.02-1.034 0-1.51.864-1.51 2.02 0 1.083.45 2.03 1.51 2.03M155.782 48.343c0-.535.243-.887.802-.887.56 0 .802.35.802.887v.232h.025c.5-.658 1.144-1.12 2.153-1.12 1.07 0 2.238.536 2.238 2.336v3.455c0 .473-.195.887-.888.887-.693 0-.89-.415-.89-.887v-3.102c0-.718-.35-1.228-1.117-1.228-.62 0-1.35.51-1.35 1.4v2.93c0 .473-.195.887-.885.887-.696 0-.89-.415-.89-.887v-4.902zM164.717 51.13c0 .934.61 1.616 1.644 1.616 1.34 0 1.34-.876 2.055-.876.425 0 .73.363.73.693 0 1.07-1.714 1.57-2.784 1.57-2.48 0-3.417-1.68-3.417-3.225 0-2.066 1.252-3.453 3.357-3.453 2.042 0 3.21 1.446 3.21 2.904 0 .607-.183.768-.78.768h-4.013zm3.114-1.024c-.097-.814-.704-1.41-1.494-1.41-.89 0-1.423.546-1.62 1.41h3.115zM173.64 47.456c1.485 0 2.592.84 2.592 1.664 0 .51-.378.766-.828.766-.838 0-.536-1.042-1.814-1.042-.69 0-1.507.473-1.507 2.078 0 1.107.525 1.825 1.495 1.825 1.24 0 .973-1.143 1.91-1.143.45 0 .743.327.743.68 0 .78-.874 1.85-2.7 1.85-2.187 0-3.225-1.352-3.225-3.212.002-2.044 1.16-3.466 3.336-3.466M177.64 48.78h-.304c-.5 0-.707-.194-.707-.583 0-.39.205-.584.706-.584h.305V46.53c0-.584.353-.887.887-.887.536 0 .89.303.89.887v1.083h.532c.524 0 .804.158.804.584 0 .425-.28.583-.805.583h-.534v3.55c0 .27.145.417.46.417h.256c.39 0 .623.22.623.595 0 .51-.44.79-1.29.79-1.29 0-1.823-.534-1.823-1.58V48.78zM183.182 51.13c0 .934.61 1.616 1.643 1.616 1.336 0 1.336-.876 2.054-.876.424 0 .728.363.728.693 0 1.07-1.713 1.57-2.783 1.57-2.48 0-3.418-1.68-3.418-3.225 0-2.066 1.252-3.453 3.357-3.453 2.042 0 3.21 1.446 3.21 2.904 0 .607-.18.768-.78.768h-4.012zm3.114-1.024c-.098-.814-.704-1.41-1.495-1.41-.888 0-1.42.546-1.617 1.41h3.113zM189.977 52.064c.794 0 1.145.706 1.145 1.533s-.246 1.24-.62 1.63c-.183.17-.73.522-1.107.522-.27 0-.414-.17-.414-.365 0-.536 1.227-.256 1.29-1.497-.11.06-.243.11-.414.11-.56 0-.875-.45-.875-.937.002-.546.45-.996.997-.996M142.558 59.11c1.484 0 2.59.84 2.59 1.67 0 .508-.377.762-.827.762-.84 0-.535-1.045-1.813-1.045-.693 0-1.51.475-1.51 2.08 0 1.105.527 1.826 1.5 1.826 1.24 0 .972-1.145 1.908-1.145.45 0 .744.33.744.68 0 .78-.88 1.852-2.704 1.852-2.19 0-3.222-1.353-3.222-3.213 0-2.04 1.156-3.466 3.334-3.466M149.11 59.11c2.14 0 3.283 1.46 3.283 3.335 0 1.775-.864 3.343-3.284 3.343s-3.285-1.567-3.285-3.343c0-1.874 1.143-3.334 3.284-3.334m0 5.365c1.058 0 1.508-.95 1.508-2.03 0-1.155-.475-2.02-1.51-2.02-1.033 0-1.508.864-1.508 2.02 0 1.082.45 2.03 1.51 2.03M153.533 60c0-.535.316-.89.84-.89s.84.354.84.89v.232h.022c.463-.708 1.24-1.12 2.14-1.12.61 0 1.376.282 1.705 1.12.494-.693 1.13-1.12 2.09-1.12 1.228 0 2.214.56 2.214 2.15v3.64c0 .473-.196.89-.89.89-.692 0-.885-.417-.885-.89v-3.188c0-.632-.28-1.142-.977-1.142-.68 0-1.288.548-1.288 1.374v2.956c0 .473-.193.89-.886.89-.697 0-.89-.417-.89-.89v-3.188c0-.632-.283-1.142-.973-1.142-.682 0-1.288.548-1.288 1.374v2.956c0 .473-.197.89-.89.89-.697 0-.89-.417-.89-.89V60zM164.79 59.95c0-.546.257-.837.805-.837.52 0 .8.292.8.838v.282h.025c.29-.755 1.012-1.12 1.872-1.12 1.484 0 2.786 1.083 2.786 3.38 0 1.703-.864 3.3-2.736 3.3-.816 0-1.422-.33-1.752-.904h-.025v2.373c0 .585-.352.888-.886.888-.535 0-.89-.303-.89-.887v-7.31zm3.102.547c-1.034 0-1.425.925-1.425 1.934 0 .915.34 1.985 1.425 1.973 1.13 0 1.408-1.143 1.408-1.972 0-1.044-.46-1.908-1.408-1.933M178.116 63.915c0 .743.18.91.18 1.194 0 .398-.377.68-.8.68-.767 0-1.02-.487-1.046-1.036-.693.768-1.498 1.036-2.434 1.036-1.01 0-2.007-.696-2.007-1.814 0-1.47 1.12-1.887 2.48-2.043l1.086-.123c.425-.047.766-.144.766-.656 0-.51-.523-.73-1.12-.73-1.312 0-1.35.972-2.055.972-.45 0-.755-.315-.755-.68 0-.704.998-1.606 2.823-1.606 1.702 0 2.882.548 2.882 1.825v2.98zm-1.775-1.277c-.195.184-.56.244-.765.28l-.645.098c-.744.11-1.143.34-1.143.876 0 .4.378.73.984.73.977 0 1.572-.634 1.572-1.29v-.694zM179.742 59.938c0-.534.355-.827.805-.827.45 0 .802.294.802.828v.682h.02c.208-.743.61-1.51 1.474-1.51.56 0 .973.367.973.865 0 .656-.44.89-.878.89h-.314c-.718 0-1.11.496-1.11 1.97v2.068c0 .473-.192.89-.885.89-.692 0-.888-.417-.888-.89v-4.965zM185.055 60.44h-.305c-.497 0-.704-.197-.704-.585 0-.39.207-.584.704-.584h.305V58.19c0-.583.352-.888.89-.888.533 0 .885.305.885.888v1.083h.537c.523 0 .802.16.802.585 0 .425-.28.584-.803.584h-.537v3.548c0 .27.145.416.46.416h.26c.387 0 .62.218.62.595 0 .51-.44.79-1.29.79-1.29 0-1.825-.535-1.825-1.582v-3.77zM190.077 56.668c.51 0 .925.412.925.923 0 .512-.416.926-.925.926-.512 0-.928-.414-.928-.925 0-.51.415-.922.927-.922M189.19 60c0-.475.192-.89.888-.89.693 0 .886.415.886.89v4.902c0 .473-.193.89-.886.89-.696 0-.89-.417-.89-.89V60zM192.568 57.605c0-.584.355-.89.89-.89.533 0 .885.306.885.89v7.297c0 .583-.352.89-.886.89-.533 0-.89-.306-.89-.89v-7.297zM195.85 57.605c0-.584.353-.89.887-.89.537 0 .89.306.89.89v2.444h.024c.354-.464.974-.937 1.982-.937 1.07 0 2.24.535 2.24 2.335v3.454c0 .473-.196.89-.89.89-.693 0-.888-.417-.888-.89V61.8c0-.718-.353-1.228-1.118-1.228-.62 0-1.35.51-1.35 1.4v2.93c0 .474-.196.89-.89.89-.692 0-.887-.416-.887-.89v-7.297zM204.785 62.785c0 .936.607 1.618 1.64 1.618 1.34 0 1.34-.877 2.058-.877.425 0 .73.364.73.693 0 1.07-1.716 1.57-2.787 1.57-2.48 0-3.415-1.68-3.415-3.225 0-2.07 1.253-3.454 3.355-3.454 2.046 0 3.21 1.45 3.21 2.907 0 .608-.18.766-.777.766h-4.013zm3.114-1.022c-.098-.816-.708-1.412-1.5-1.412-.885 0-1.422.548-1.615 1.413h3.114zM211.58 63.72c.79 0 1.143.707 1.143 1.534 0 .828-.243 1.24-.62 1.63-.182.17-.73.522-1.107.522-.266 0-.41-.17-.41-.364 0-.535 1.226-.255 1.288-1.497-.11.06-.243.112-.417.112-.56 0-.872-.45-.872-.937 0-.55.447-1 .995-1M140.55 68.326c.51 0 .926.414.926.924s-.416.925-.925.925c-.51 0-.924-.414-.924-.925 0-.51.413-.924.925-.924m-.888 3.332c0-.474.196-.887.89-.887.692 0 .885.414.885.888v4.902c0 .474-.194.887-.886.887s-.888-.413-.888-.887v-4.902zM142.946 71.658c0-.534.243-.887.802-.887.56 0 .802.354.802.888v.232h.025c.498-.658 1.143-1.12 2.153-1.12 1.07 0 2.238.536 2.238 2.334v3.456c0 .474-.196.887-.89.887-.692 0-.888-.413-.888-.887v-3.1c0-.72-.352-1.23-1.118-1.23-.62 0-1.35.51-1.35 1.398v2.93c0 .475-.195.888-.888.888s-.886-.413-.886-.887v-4.902zM152.756 70.77c1.35 0 2.71.536 2.71 1.35 0 .414-.28.78-.74.78-.693 0-.718-.816-1.836-.816-.62 0-1.023.17-1.023.547 0 .415.402.51.95.633l.74.17c1.01.23 2.217.656 2.217 1.898 0 1.448-1.4 2.117-2.736 2.117-1.607 0-2.946-.718-2.946-1.594 0-.39.218-.74.716-.74.768 0 .84 1.094 2.154 1.094.632 0 1.034-.28 1.034-.644 0-.448-.39-.523-1.02-.68l-1.048-.256c-1.034-.256-1.836-.683-1.836-1.874 0-1.447 1.437-1.982 2.664-1.982M156.9 71.61c0-.546.254-.84.802-.84.525 0 .802.294.802.84v.28h.025c.29-.754 1.008-1.12 1.87-1.12 1.485 0 2.787 1.083 2.787 3.38 0 1.703-.864 3.296-2.736 3.296-.815 0-1.425-.33-1.75-.9h-.024v2.373c0 .58-.352.887-.89.887-.535 0-.888-.306-.888-.888v-7.31zm3.103.547c-1.034 0-1.422.924-1.422 1.934 0 .912.34 1.982 1.423 1.97 1.13 0 1.41-1.142 1.41-1.97 0-1.045-.463-1.908-1.41-1.933M165.313 68.326c.51 0 .925.414.925.924s-.414.925-.925.925c-.51 0-.925-.414-.925-.925 0-.51.414-.924.925-.924m-.887 3.332c0-.474.193-.887.886-.887.693 0 .89.414.89.888v4.902c0 .474-.197.887-.89.887-.693 0-.886-.413-.886-.887v-4.902zM167.806 71.598c0-.534.352-.827.802-.827.45 0 .802.294.802.828v.682h.025c.207-.743.607-1.51 1.47-1.51.562 0 .975.367.975.865 0 .656-.44.89-.877.89h-.316c-.718 0-1.106.496-1.106 1.968v2.068c0 .475-.195.888-.885.888-.697 0-.89-.413-.89-.887V71.6zM174.03 74.443c0 .936.606 1.618 1.64 1.618 1.34 0 1.34-.874 2.057-.874.425 0 .73.364.73.692 0 1.073-1.717 1.57-2.787 1.57-2.482 0-3.415-1.68-3.415-3.223 0-2.068 1.252-3.454 3.357-3.454 2.042 0 3.21 1.447 3.21 2.907 0 .607-.184.766-.78.766h-4.013zm3.113-1.02c-.098-.816-.704-1.412-1.498-1.412-.886 0-1.422.546-1.616 1.413h3.113zM180.823 75.38c.548 0 .998.45.998.997 0 .547-.45.998-.997.998-.545 0-.994-.45-.994-.998s.45-.998.993-.998"/></svg>