<svg xmlns="http://www.w3.org/2000/svg" width="72.368" height="75" viewBox="0 0 72.368 75"><g fill="#184A8F"><path d="M44.86 51.847h.442v-2.6h-.44v2.6zm0-3.08h.442v-.51h-.44v.51zM25.4 57.32v-3.592h.486l1.885 2.82v-2.82h.456v3.592h-.487l-1.886-2.82v2.82M50.16 57.32h.442v-2.6h-.44v2.6zm0-3.08h.442v-.507h-.44v.507zM37.115 62.796v-3.59h2.597v.424H37.59v1.097h1.987v.42H37.59v1.224h2.204v.426M20.33 68.27h.44v-2.602h-.44v2.6zm0-3.086h.44v-.507h-.44v.507zM29.532 68.27h.44v-2.602h-.44v2.6zm0-3.086h.44v-.507h-.44v.507zM49.597 64.674h.44v3.595h-.44zM23.888 36.453h31.58v1.32h-31.58zM22.1 38.698H57.19v1.33H22.1zM20.446 40.954h38.467v1.32H20.446zM23.888 19.757h31.58v1.323h-31.58zM30.275 18.907l9.402-2.816 9.204 2.817h3.84l-13.043-4.04-13.242 4.04"/><path d="M23.888 18.907l15.692-4.802 15.89 4.802V17.48L39.678 12.62l-15.79 4.863M30.937 35.728h.662v-8.32l.83 8.32h.692V21.89h-.693v7.396l-.83-7.395h-.663M36.203 35.728h2.12V35H37.13v-6.26h.89v-.758h-.89v-5.4h.89v-.69h-1.817M31.32 50.106c0 .434.116.775.35 1.026.23.248.522.372.876.372.358 0 .65-.124.885-.378.23-.253.348-.608.348-1.07 0-.293-.05-.545-.153-.766-.097-.22-.24-.382-.428-.507-.196-.117-.405-.18-.642-.18-.335 0-.628.117-.87.347-.242.23-.366.616-.366 1.156m-.488-.007c0-.596.16-1.064.48-1.4.32-.337.73-.504 1.238-.504.33 0 .63.077.896.237.264.156.47.382.606.662.14.284.21.604.21.962 0 .37-.073.694-.22.978-.146.288-.357.507-.626.654-.268.147-.56.222-.868.222-.34 0-.644-.08-.908-.245-.265-.163-.47-.385-.604-.67-.137-.283-.204-.582-.204-.898M34.817 51.848v-2.6h.397v.397c.103-.187.196-.308.28-.37l.28-.087c.15 0 .302.047.458.14l-.153.413-.324-.096-.26.086-.165.245c-.05.156-.072.327-.072.514v1.358h-.44zM36.776 50.504c0 .34.066.59.2.745.14.155.306.236.512.236.203 0 .37-.08.51-.233.137-.157.204-.402.204-.733 0-.32-.07-.56-.21-.724-.14-.16-.312-.243-.51-.243-.196 0-.363.078-.5.238-.14.166-.206.4-.206.714m-.367 1.562l.428.06c.02.135.07.232.15.29.11.082.258.125.45.125.206 0 .357-.042.47-.123.113-.083.187-.196.225-.344.024-.088.03-.275.03-.564-.19.224-.43.337-.72.337-.358 0-.635-.128-.83-.385-.2-.258-.292-.568-.292-.926 0-.25.044-.48.134-.69.09-.21.22-.375.39-.488.17-.113.374-.17.604-.17.308 0 .56.123.76.373v-.314h.404v2.252c0 .404-.04.692-.124.86-.083.168-.21.3-.39.402-.18.097-.398.144-.662.144-.308 0-.56-.07-.752-.21-.19-.137-.278-.348-.275-.628M40.94 50.544c-.16.066-.402.12-.716.167-.184.025-.308.055-.387.09l-.17.14-.067.21.136.297c.09.077.218.113.39.113.168 0 .323-.036.457-.108l.29-.304c.044-.1.068-.245.068-.44v-.164zm.038.984c-.16.14-.32.234-.47.293-.154.06-.316.087-.488.087-.288 0-.507-.066-.66-.21-.154-.137-.227-.317-.227-.534l.086-.347.23-.258.313-.143c.09-.02.218-.047.394-.067.354-.04.615-.093.783-.148l.004-.117c0-.183-.04-.307-.126-.38-.113-.098-.28-.15-.502-.15-.207 0-.362.037-.46.11-.096.075-.17.2-.217.386l-.433-.06c.04-.183.106-.334.195-.448.09-.113.217-.198.388-.26.168-.062.367-.094.594-.094.22 0 .4.027.537.078.14.054.242.12.31.198l.14.3c.01.077.02.21.02.405v.59c0 .405.01.666.03.776l.108.31h-.46l-.09-.318M42.07 51.848v-2.6h.4v.37c.187-.285.468-.43.825-.43.157 0 .3.027.434.086.13.056.23.128.294.223l.136.324c.016.082.023.226.023.433v1.595h-.438v-1.58c0-.18-.016-.313-.05-.407l-.184-.21-.307-.08c-.186 0-.35.06-.482.178-.14.12-.206.347-.206.682v1.417h-.445zM45.74 51.848v-.358l1.658-1.9c-.188.01-.355.016-.497.016h-1.06v-.358h2.125v.29L46.56 51.19l-.277.3c.2-.01.385-.02.56-.02h1.2v.378H45.74zM50.143 50.544c-.16.066-.402.12-.72.167-.18.025-.31.055-.383.09l-.176.14-.06.21.135.298c.09.077.217.113.39.113.167 0 .32-.035.45-.107.134-.074.23-.176.292-.304.047-.102.07-.246.07-.442v-.164zm.04.984c-.165.14-.325.234-.473.293-.15.06-.315.087-.485.087-.29 0-.507-.066-.662-.21-.153-.137-.227-.317-.227-.534l.086-.347.227-.258.317-.143c.086-.02.218-.047.39-.067.358-.04.62-.093.788-.148l.003-.117c0-.183-.038-.307-.124-.38-.113-.098-.28-.15-.502-.15-.21 0-.362.037-.46.11-.096.075-.17.2-.217.386l-.432-.06c.04-.183.106-.334.195-.448.09-.113.217-.198.388-.26.168-.062.367-.094.59-.094.223 0 .403.027.538.078.14.054.243.12.308.198l.137.3c.01.077.022.21.022.405v.59c0 .405.01.666.03.776l.11.31h-.462l-.088-.318M51.95 52.176l.127-.434h.327l-.08.265c.14.016.24.058.312.128l.108.23-.18.323c-.117.094-.295.14-.53.14-.132 0-.252-.006-.353-.028l.032-.284.226.01c.156 0 .26-.024.324-.064l.068-.12-.026-.078-.106-.063-.25-.024m1.02-1.278l.438.054c-.05.3-.17.53-.367.7-.195.174-.436.255-.722.255-.354 0-.638-.114-.856-.347-.218-.234-.323-.57-.323-1.002 0-.28.045-.525.135-.74.097-.204.234-.364.425-.47.19-.106.4-.16.622-.16.28 0 .515.074.693.214.18.144.297.347.347.608l-.432.066c-.038-.176-.108-.304-.214-.392-.106-.09-.225-.13-.374-.13-.226 0-.405.078-.545.234-.137.16-.207.412-.207.755 0 .355.067.608.203.77.133.15.308.232.522.232.176 0 .32-.05.437-.16.113-.106.186-.27.217-.487M55.44 50.544c-.16.066-.402.12-.72.167-.18.025-.31.055-.383.09l-.17.14-.068.21.136.298c.09.077.218.113.39.113s.318-.035.455-.107c.13-.074.23-.176.29-.304.05-.102.07-.246.07-.442v-.164zm-1.43-1.68c0-.17.046-.308.14-.408.093-.1.214-.153.358-.153.1 0 .238.047.417.133l.227.074.12-.043.06-.17h.32c-.005.186-.052.326-.145.42-.087.09-.198.14-.335.14-.106 0-.238-.047-.405-.14l-.24-.085-.134.06-.054.173h-.33zm1.47 2.664c-.165.14-.325.234-.473.293-.15.06-.31.087-.487.087-.288 0-.507-.066-.658-.21-.155-.137-.23-.317-.23-.534l.086-.347.227-.258.318-.143c.086-.02.218-.047.39-.067.358-.04.62-.093.788-.148l.004-.117c0-.183-.038-.307-.124-.38-.113-.098-.28-.15-.502-.15-.207 0-.36.037-.46.11-.098.075-.17.2-.217.386l-.43-.06c.037-.183.105-.334.194-.448.088-.113.217-.198.388-.26.167-.062.367-.094.59-.094.223 0 .403.027.538.078.14.054.245.12.308.198l.137.3c.016.077.023.21.023.405v.59c0 .405.01.666.03.776l.11.31h-.46l-.09-.318M56.86 50.547c0 .334.074.585.218.748.144.168.327.25.548.25.22 0 .398-.08.547-.25.144-.168.218-.42.218-.76 0-.322-.073-.567-.217-.73-.148-.17-.33-.25-.547-.25-.22 0-.404.08-.548.244-.143.168-.218.416-.218.747m-.455 0c0-.48.136-.838.4-1.072.227-.19.5-.288.822-.288.36 0 .65.117.873.355.23.234.342.554.342.97 0 .334-.05.595-.15.79-.1.192-.246.34-.438.447-.19.1-.4.156-.628.156-.365 0-.656-.117-.883-.35-.225-.234-.338-.568-.338-1.01M16.16 56.023c0 .33.067.584.207.752.14.16.308.245.498.245.195 0 .36-.083.49-.238.138-.16.204-.4.204-.72 0-.36-.067-.62-.206-.787-.137-.167-.305-.25-.507-.25-.196 0-.36.083-.49.243-.13.16-.197.413-.197.755m1.392 1.297v-.327c-.164.257-.405.385-.725.385-.21 0-.4-.054-.577-.17-.17-.114-.308-.274-.405-.476-.088-.207-.14-.44-.14-.71 0-.26.043-.493.128-.707.09-.207.218-.37.394-.484.17-.112.367-.17.577-.17.156 0 .295.034.42.1l.296.258v-1.29h.44v3.592h-.408zM20.317 56.015c-.164.067-.402.12-.72.168-.185.027-.31.06-.386.084l-.17.146-.067.214.136.293c.09.077.217.116.39.116.167 0 .323-.04.456-.113.128-.073.23-.176.292-.304.043-.1.07-.245.07-.44v-.165zm.035.986c-.16.14-.32.234-.47.296-.154.054-.312.083-.488.083-.285 0-.507-.068-.658-.208-.157-.14-.23-.32-.23-.537 0-.13.027-.243.085-.348l.23-.253.316-.144c.09-.023.22-.047.394-.067.355-.04.615-.097.788-.15v-.118c0-.178-.04-.308-.126-.38-.11-.098-.28-.15-.498-.15-.21 0-.362.037-.464.11-.097.073-.17.202-.217.386l-.434-.06c.04-.182.105-.33.194-.443.09-.117.22-.2.39-.264.17-.06.365-.094.592-.094.22 0 .4.028.537.082.14.05.245.117.308.194l.14.304c.012.074.02.207.02.405v.588c0 .405.012.67.032.775l.108.317h-.46L20.353 57M21.267 56.545l.437-.068c.023.174.093.307.205.4.11.097.27.144.467.144.203 0 .354-.042.45-.123l.15-.29-.13-.236c-.062-.038-.213-.087-.45-.15-.324-.08-.55-.15-.675-.21l-.284-.25-.097-.347.082-.324.214-.245.28-.128c.118-.036.245-.056.382-.056.203 0 .38.032.538.09.156.06.268.14.342.24.074.1.124.236.153.404l-.43.056c-.02-.136-.078-.237-.173-.31-.09-.08-.225-.114-.392-.114-.207 0-.35.03-.437.097l-.128.238.054.152.164.12c.047.017.174.05.392.114.313.08.53.147.655.203l.288.23c.07.1.106.224.106.377 0 .147-.044.287-.13.415-.086.13-.21.23-.37.3-.164.07-.347.105-.55.105-.337 0-.594-.07-.77-.21-.18-.136-.293-.34-.343-.622M30.63 56.015c-.16.067-.4.12-.72.168-.18.027-.308.06-.385.084l-.173.146-.066.214.14.293c.086.077.214.116.385.116.172 0 .325-.04.458-.113.13-.073.23-.176.29-.304.048-.1.072-.245.072-.44v-.165zm.035.986c-.16.14-.32.234-.472.296-.147.054-.31.083-.485.083-.285 0-.507-.068-.658-.208-.153-.14-.23-.32-.23-.537 0-.13.027-.243.088-.348l.225-.253.315-.144c.09-.023.218-.047.394-.067.358-.04.62-.097.788-.15l.003-.118c0-.178-.043-.308-.124-.38-.114-.098-.282-.15-.503-.15-.21 0-.362.037-.46.11-.1.073-.17.202-.22.386l-.43-.06c.04-.182.102-.33.192-.443.092-.117.22-.2.39-.264.17-.06.368-.094.59-.094.22 0 .4.028.537.082.144.05.245.117.307.194l.14.304c.012.074.02.207.02.405v.588c0 .405.012.67.032.775l.108.317h-.46l-.09-.324M32.437 57.65l.124-.436h.328l-.078.266c.138.016.243.058.313.128l.106.23-.177.324c-.12.097-.297.143-.53.143-.135 0-.253-.01-.354-.03l.028-.288.23.01c.15 0 .26-.022.323-.062l.07-.12-.026-.078-.106-.058-.25-.03m1.02-1.28l.432.054c-.047.3-.17.535-.367.705-.194.166-.432.25-.716.25-.355 0-.642-.114-.86-.348-.214-.234-.324-.565-.324-1 0-.28.047-.527.14-.736.094-.21.234-.37.425-.475.19-.105.398-.16.622-.16.28 0 .515.075.695.22.178.14.29.34.34.605l-.427.067c-.04-.176-.11-.308-.214-.397-.104-.086-.228-.13-.377-.13-.223 0-.4.078-.542.238-.136.16-.21.414-.21.755 0 .35.067.604.203.763.133.157.308.24.525.24.173 0 .315-.055.432-.165.113-.104.19-.267.223-.485M34.555 56.023c0 .33.074.58.218.743.144.168.327.254.55.254.216 0 .4-.086.544-.254.148-.167.218-.42.218-.76 0-.322-.07-.563-.218-.73-.144-.168-.33-.25-.545-.25-.223 0-.405.082-.55.25-.143.163-.217.413-.217.747m-.054-1.687c0-.17.048-.303.14-.408.095-.1.215-.153.36-.153.1 0 .237.047.413.134l.23.072.12-.043.058-.168h.32c-.003.187-.05.323-.14.417-.09.092-.202.14-.34.14-.103 0-.236-.048-.403-.137l-.243-.09-.136.06-.05.173H34.5zm-.396 1.687c0-.482.133-.84.4-1.07.227-.19.495-.288.82-.288.357 0 .65.116.875.35.224.234.34.558.34.97 0 .335-.05.6-.15.79-.1.197-.245.345-.44.45-.19.105-.4.155-.628.155-.365 0-.658-.113-.885-.347-.22-.238-.333-.574-.333-1.01M37.39 55.773h1.454c-.02-.22-.078-.385-.167-.494-.14-.172-.324-.255-.547-.255-.205 0-.372.067-.514.198-.135.142-.213.32-.225.55m1.446.714l.457.054c-.07.266-.203.472-.397.62-.196.148-.445.218-.745.218-.38 0-.684-.113-.907-.347-.22-.237-.335-.564-.335-.988 0-.437.114-.78.34-1.017.226-.245.518-.36.876-.36.347 0 .634.115.853.353.22.234.33.568.33.996l-.003.117h-1.936c.016.29.094.508.243.66.145.152.328.23.542.23.16 0 .3-.043.417-.128.11-.085.2-.222.266-.405M39.67 56.545l.437-.068c.023.174.093.307.205.4.11.097.265.144.468.144s.35-.042.45-.123l.145-.29-.128-.236c-.06-.038-.21-.087-.45-.15-.325-.08-.546-.15-.672-.21l-.284-.25-.096-.347.08-.324.215-.245.28-.128c.117-.036.245-.056.38-.056.204 0 .382.032.54.09.15.06.267.14.34.24.075.1.125.236.15.404l-.43.057c-.02-.135-.077-.236-.172-.31-.093-.078-.225-.113-.392-.113-.206 0-.35.03-.437.097l-.132.238.054.15.167.122c.046.016.175.05.39.113.314.08.528.147.652.203l.293.23c.07.1.106.225.106.378 0 .147-.043.287-.127.415-.086.13-.21.23-.37.3-.164.07-.348.105-.55.105-.34 0-.596-.07-.772-.21-.178-.137-.29-.342-.34-.623M46.162 53.733h.475v2.072c0 .362-.043.65-.126.86-.08.212-.225.386-.44.52-.213.132-.494.197-.84.197-.337 0-.612-.057-.826-.17-.214-.12-.363-.285-.455-.508-.09-.217-.138-.518-.138-.9v-2.07h.475V55.8c0 .316.027.546.086.695.06.148.16.26.3.342.14.077.31.117.518.117.348 0 .596-.077.744-.237.153-.16.227-.464.227-.916v-2.067zM47.37 57.32v-2.6h.396v.37c.193-.285.467-.43.83-.43.156 0 .3.032.43.087.135.06.233.133.294.223l.14.327c.017.08.024.22.024.428v1.597h-.44v-1.58c0-.18-.02-.312-.05-.406l-.184-.21-.308-.083c-.187 0-.35.063-.487.18-.136.12-.203.347-.203.68v1.42h-.443zM51.567 56.023c0 .33.07.584.21.752.144.16.308.245.5.245.193 0 .357-.083.49-.238.136-.16.2-.4.2-.72 0-.36-.067-.62-.204-.787-.136-.167-.304-.25-.507-.25-.194 0-.363.083-.49.243-.133.16-.2.413-.2.755m1.396 1.297v-.327c-.163.257-.405.385-.728.385-.207 0-.398-.054-.572-.17-.173-.114-.308-.274-.405-.476-.094-.207-.14-.44-.14-.71 0-.26.04-.493.127-.707.087-.207.22-.37.39-.484.176-.112.37-.17.58-.17.157 0 .298.034.422.1l.295.258v-1.29h.442v3.592h-.41zM55.724 56.015c-.16.067-.398.12-.722.168-.178.027-.307.06-.38.084l-.177.146-.06.214.135.293c.09.077.218.116.39.116s.32-.04.452-.113c.133-.073.23-.176.29-.304.048-.1.072-.245.072-.44v-.165zm.04.986c-.165.14-.32.234-.473.296-.15.054-.314.083-.486.083-.288 0-.507-.068-.658-.208-.155-.14-.23-.32-.23-.537 0-.13.028-.243.086-.348l.227-.253.317-.144c.086-.023.218-.047.39-.067.358-.04.62-.097.788-.15l.003-.118c0-.178-.038-.308-.124-.38-.113-.098-.28-.15-.502-.15-.207 0-.36.037-.46.11-.098.073-.17.202-.217.386l-.432-.06c.038-.182.106-.33.195-.443.088-.117.217-.2.388-.264.167-.06.367-.094.59-.094.223 0 .403.028.538.082.14.05.243.117.308.194l.137.304c.015.074.022.207.022.405v.588c0 .405.01.67.03.775l.11.317h-.462L55.763 57M56.678 56.545l.435-.068c.024.174.094.307.208.4.108.097.265.144.468.144.2 0 .354-.042.452-.123l.147-.29-.133-.236c-.06-.038-.21-.087-.45-.15-.325-.08-.546-.15-.672-.21l-.288-.25-.094-.347.078-.324.218-.245.28-.128c.118-.036.245-.056.382-.056.203 0 .382.032.538.09.15.06.268.14.342.24.074.1.12.236.15.404l-.43.057c-.02-.135-.078-.236-.172-.31-.093-.078-.225-.113-.397-.113-.204 0-.348.03-.433.097l-.128.238.05.15.172.122c.043.016.17.05.388.113.313.08.53.147.65.203l.294.23c.07.1.104.225.104.378 0 .147-.043.287-.128.415-.086.13-.21.23-.372.3-.16.07-.344.105-.547.105-.337 0-.594-.07-.774-.21-.174-.137-.287-.342-.338-.623M21.83 61.51c0 .33.072.58.204.74.137.16.3.242.495.242.193 0 .362-.08.5-.248.14-.168.21-.425.21-.772 0-.33-.07-.58-.205-.745-.137-.163-.3-.244-.487-.244-.188 0-.355.086-.5.26-.143.175-.217.433-.217.767m-.396 2.28v-3.596h.4v.334l.32-.295c.12-.067.265-.097.433-.097.225 0 .42.054.592.17.166.114.294.278.38.483.086.206.133.436.133.68 0 .274-.05.508-.148.722-.093.214-.23.378-.412.49-.183.114-.374.172-.572.172-.15 0-.28-.03-.397-.094l-.287-.233v1.26h-.442zM25.883 61.487c-.16.067-.4.12-.72.168-.18.027-.31.06-.382.09l-.175.143-.063.21.136.294c.09.077.218.116.39.116s.32-.034.452-.108c.133-.077.23-.178.29-.308.048-.1.072-.244.072-.44v-.165zm.038.986c-.163.14-.323.238-.47.295-.153.056-.315.086-.487.086-.288 0-.507-.07-.662-.21-.152-.14-.225-.32-.225-.534l.086-.35.227-.254.32-.144c.084-.023.214-.047.388-.07.358-.04.62-.094.788-.148l.004-.117c0-.178-.04-.304-.126-.38-.112-.098-.28-.145-.5-.145-.208 0-.363.03-.46.104-.097.074-.17.204-.217.39l-.434-.06c.04-.185.105-.332.194-.445.09-.112.217-.202.388-.264.168-.06.367-.093.59-.093.225 0 .404.026.54.08.14.052.24.115.308.195l.137.3c.014.078.023.215.023.41v.587c0 .41.007.666.027.775l.108.313h-.46l-.084-.32M27.008 62.796v-2.6h.397v.393c.1-.185.196-.31.28-.368l.28-.09c.154 0 .3.05.456.144l-.15.412-.324-.097-.26.087-.164.24c-.046.16-.074.33-.074.515v1.364h-.44zM30.342 61.487c-.16.067-.398.12-.72.168-.18.027-.31.06-.382.09l-.173.143-.06.21.13.294c.09.077.218.116.39.116s.32-.034.452-.108c.135-.077.23-.178.29-.308.047-.1.07-.244.07-.44v-.165zm.04.986c-.165.14-.32.238-.473.295-.148.056-.315.086-.486.086-.29 0-.507-.07-.658-.21-.157-.14-.23-.32-.23-.534l.084-.35.23-.254.317-.144c.084-.023.217-.047.388-.07.358-.04.62-.094.788-.148l.004-.117c0-.178-.04-.304-.126-.38-.112-.098-.28-.145-.5-.145-.208 0-.363.03-.46.104-.097.074-.17.204-.217.39l-.434-.06c.04-.185.105-.332.194-.445.09-.112.217-.202.388-.264.168-.06.367-.093.59-.093.225 0 .403.026.54.08.14.052.245.115.308.195l.137.3c.014.078.023.215.023.41v.587c0 .41.01.666.027.775l.113.313h-.46l-.09-.32M34.525 61.487c-.16.067-.398.12-.718.168-.183.027-.307.06-.384.09l-.173.143-.066.21.136.294c.09.077.218.116.39.116s.324-.034.457-.108c.13-.077.23-.178.287-.308.05-.1.07-.244.07-.44v-.165zm.038.986c-.16.14-.32.238-.472.295-.146.056-.31.086-.484.086-.29 0-.507-.07-.658-.21-.153-.14-.23-.32-.23-.534l.09-.35.224-.254.315-.144c.09-.023.218-.047.394-.07.355-.04.62-.094.784-.148l.004-.117c0-.178-.04-.304-.126-.38-.113-.098-.28-.145-.498-.145-.21 0-.362.03-.464.104-.097.074-.167.204-.217.39l-.43-.06c.037-.185.102-.332.192-.445.09-.112.217-.202.388-.264.168-.06.367-.093.594-.093.22 0 .4.026.537.08.14.052.245.115.308.195l.14.3c.01.078.02.215.02.41v.587c0 .41.01.666.03.775l.11.313h-.462l-.087-.32M40.69 61.495c0 .335.07.585.21.748.14.167.308.245.5.245.19 0 .357-.074.488-.234.137-.158.204-.397.204-.72 0-.357-.07-.618-.207-.787-.136-.163-.307-.244-.507-.244-.198 0-.363.077-.495.237-.128.16-.193.412-.193.755m1.394 1.3v-.33c-.164.257-.405.39-.728.39-.207 0-.398-.06-.574-.173-.17-.116-.307-.275-.404-.478-.094-.207-.14-.44-.14-.71 0-.256.037-.493.128-.704.086-.21.214-.372.388-.487.176-.113.367-.17.58-.17.157 0 .298.033.422.1l.295.257v-1.284h.442v3.59h-.408zM44.89 62.796v-.382c-.204.293-.476.44-.823.44-.156 0-.297-.03-.428-.09-.138-.058-.235-.132-.302-.22-.06-.09-.108-.198-.136-.328-.016-.086-.027-.22-.027-.408v-1.613h.44v1.44c0 .235.013.386.03.468l.177.273c.09.066.198.097.33.097.134 0 .258-.03.375-.1l.245-.276c.047-.113.074-.288.074-.507v-1.394h.44v2.6h-.397zM47.673 61.842l.432.06c-.047.295-.167.53-.363.696-.194.17-.437.255-.72.255-.355 0-.643-.117-.857-.35-.218-.234-.327-.564-.327-1 0-.28.047-.525.14-.736.093-.21.237-.37.424-.47.195-.11.402-.165.624-.165.28 0 .514.074.693.214.177.144.29.35.34.61l-.427.068c-.038-.176-.11-.308-.214-.394-.107-.086-.232-.13-.38-.13-.222 0-.4.076-.54.236-.137.16-.206.412-.206.756 0 .35.067.604.198.762.133.16.313.234.527.234.173 0 .317-.05.43-.16.117-.1.193-.264.223-.486M50.143 61.487c-.16.067-.402.12-.72.168-.18.027-.31.06-.383.09l-.176.143-.06.21.135.294c.09.077.217.116.39.116.167 0 .32-.034.45-.108.134-.077.23-.178.292-.308.047-.1.07-.244.07-.44v-.165zm.04.986c-.165.14-.32.238-.473.295-.15.056-.315.086-.485.086-.29 0-.507-.07-.662-.21-.153-.14-.227-.32-.227-.534l.086-.35.23-.254.315-.144c.086-.023.218-.047.39-.07.358-.04.62-.094.788-.148l.003-.117c0-.178-.038-.304-.124-.38-.113-.098-.28-.145-.502-.145-.207 0-.362.03-.46.104-.096.074-.17.204-.217.39l-.432-.06c.04-.185.106-.332.195-.445.09-.112.217-.202.388-.264.168-.06.367-.093.59-.093.223 0 .403.026.538.08.14.052.243.115.308.195l.14.3c.012.078.02.215.02.41v.587c0 .41.01.666.03.775l.11.313h-.46l-.09-.32M51.95 63.123l.127-.432h.327l-.08.262c.14.016.244.058.314.128l.106.23-.18.327c-.117.094-.29.14-.53.14-.132 0-.252-.007-.35-.03l.028-.285.226.01c.156 0 .26-.02.327-.064l.066-.12-.025-.078-.106-.058-.25-.03m1.02-1.28l.436.06c-.05.295-.17.53-.367.696-.195.17-.436.255-.722.255-.354 0-.638-.117-.856-.35-.218-.234-.323-.564-.323-1 0-.28.045-.525.14-.736.092-.21.232-.37.423-.47.19-.11.398-.165.62-.165.284 0 .514.074.692.214.18.144.297.35.347.61l-.432.068c-.038-.176-.108-.308-.214-.394-.106-.086-.225-.13-.374-.13-.223 0-.405.076-.54.236-.142.16-.212.412-.212.756 0 .35.067.604.203.762.133.16.308.234.522.234.176 0 .32-.05.437-.16.113-.1.186-.264.217-.486M55.443 61.487c-.164.067-.4.12-.72.168-.184.027-.31.06-.386.09l-.17.143-.064.21.133.294c.09.077.218.116.39.116s.318-.034.455-.108c.134-.077.228-.178.294-.308.046-.1.07-.244.07-.44v-.165zM54.01 59.81c0-.168.046-.305.14-.405.093-.106.214-.157.358-.157.1 0 .238.047.417.136l.23.07.117-.042.06-.173h.32c-.005.187-.052.327-.142.42-.09.094-.2.14-.338.14-.1 0-.238-.046-.405-.14l-.24-.086-.134.06-.054.175h-.33zm1.47 2.663c-.16.14-.32.238-.473.295-.148.056-.31.086-.487.086-.284 0-.507-.07-.658-.21-.155-.14-.23-.32-.23-.534l.086-.35.23-.254.315-.144c.09-.023.218-.047.394-.07.354-.04.62-.094.786-.148v-.117c0-.178-.038-.304-.12-.38-.113-.098-.285-.145-.507-.145-.207 0-.362.03-.457.104-.102.074-.175.204-.222.39l-.432-.06c.043-.185.106-.332.195-.445.09-.112.222-.202.393-.264.163-.06.362-.093.585-.093.224 0 .404.026.54.08.145.052.244.115.307.195l.14.3c.013.078.02.215.02.41v.587c0 .41.01.666.03.775l.11.313h-.46l-.086-.32M56.86 61.495c0 .33.076.585.22.748.143.164.327.25.548.25.218 0 .4-.086.545-.254.144-.164.218-.42.218-.76 0-.318-.073-.564-.217-.73-.147-.17-.33-.246-.545-.246-.22 0-.405.077-.548.245-.145.165-.22.41-.22.745m-.45 0c0-.482.132-.836.4-1.075.223-.187.494-.284.818-.284.358 0 .65.117.873.35.23.234.344.558.344.97 0 .335-.05.597-.148.79-.1.192-.245.34-.44.45-.19.105-.4.16-.628.16-.365 0-.658-.118-.883-.35-.222-.236-.336-.575-.336-1.01M59.474 62.796v-.504h.502v.504c0 .183-.03.334-.094.447-.066.11-.17.2-.314.258l-.12-.182.202-.184c.047-.077.073-.19.073-.338h-.25zM14.18 66.965c-.16.06-.402.117-.722.163-.178.027-.308.06-.38.09l-.177.14-.057.214.133.29c.09.08.218.118.388.118s.32-.034.454-.108c.13-.074.228-.178.29-.307.048-.098.072-.245.072-.437v-.163zm.037.98c-.163.14-.323.24-.47.293-.154.063-.316.09-.488.09-.29 0-.508-.07-.663-.215-.15-.133-.226-.315-.226-.53l.087-.35.226-.253.32-.144c.086-.023.218-.047.39-.066.358-.043.618-.094.788-.153l.004-.117c0-.178-.043-.303-.124-.377-.113-.103-.28-.153-.502-.153-.21 0-.363.04-.46.11-.098.073-.173.203-.218.388l-.432-.057c.038-.187.104-.334.194-.447.09-.113.218-.203.39-.26.167-.064.365-.095.588-.095.226 0 .405.024.54.078.142.054.244.117.31.195l.136.3c.016.078.02.215.02.41v.587c0 .41.01.67.03.775l.108.317h-.455l-.093-.325M19.32 67.01l.474.118c-.1.388-.28.69-.537.895-.257.203-.572.308-.95.308-.385 0-.698-.08-.94-.237-.244-.156-.427-.385-.556-.685-.125-.3-.19-.62-.19-.962 0-.378.074-.7.214-.978.144-.28.347-.49.612-.635.26-.144.552-.218.872-.218.358 0 .658.094.903.273.246.184.42.444.516.772l-.468.113c-.086-.26-.207-.452-.363-.57-.16-.12-.358-.182-.6-.182-.276 0-.506.07-.693.204-.183.128-.315.307-.39.53-.074.225-.113.452-.113.69 0 .307.046.57.136.802.084.225.226.397.412.51.187.112.39.166.61.166.266 0 .492-.077.675-.228.186-.154.315-.385.377-.683M21.774 66.72h1.45c-.018-.22-.076-.383-.166-.496-.14-.167-.322-.253-.545-.253-.203 0-.374.067-.51.204-.14.135-.213.318-.23.545m.724-1.794l-.277.417h-.502l.525-.685h.472l.554.685h-.505l-.268-.417zm.725 2.505l.45.057c-.07.268-.2.475-.396.618-.196.148-.444.223-.743.223-.382 0-.68-.117-.908-.35-.223-.238-.33-.566-.33-.99 0-.437.113-.775.334-1.016.225-.24.517-.362.878-.362.348 0 .632.117.853.354.22.234.332.57.332 1.002l-.004.11h-1.944c.02.29.097.508.243.66.147.15.33.23.545.23.164 0 .3-.043.417-.128.112-.088.205-.225.272-.407M24.23 68.268v-2.6h.398v.37c.187-.285.467-.43.825-.43.157 0 .3.027.434.086.13.054.23.128.295.223l.137.323c.013.083.025.22.025.428v1.6H25.9v-1.58c0-.18-.013-.315-.05-.405l-.182-.214-.304-.084c-.19 0-.355.063-.487.184-.14.117-.207.342-.207.678v1.42h-.44zM28.717 67.314l.432.056c-.047.3-.168.532-.364.704-.198.167-.437.254-.72.254-.355 0-.643-.117-.86-.35-.214-.235-.324-.566-.324-1 0-.282.047-.526.14-.737.093-.21.234-.37.424-.47.195-.11.402-.16.624-.16.28 0 .514.07.693.214.178.14.293.347.342.606l-.428.067c-.038-.174-.11-.304-.214-.394-.106-.088-.23-.13-.378-.13-.223 0-.4.076-.54.236-.138.16-.208.41-.208.755 0 .35.067.608.198.763.133.156.313.237.527.237.176 0 .318-.056.432-.16.12-.11.193-.27.223-.49M32.3 66.965c-.16.06-.4.117-.72.163-.18.027-.308.06-.382.09l-.176.14-.063.214.136.29c.09.08.218.118.39.118s.318-.034.452-.108c.133-.074.228-.178.29-.307.048-.098.072-.245.072-.437v-.163zm.04.98c-.164.14-.32.24-.472.293-.15.063-.315.09-.485.09-.29 0-.507-.07-.664-.215-.152-.133-.226-.315-.226-.53l.086-.35.225-.253.32-.144c.086-.023.218-.047.39-.066.358-.043.62-.094.788-.153l.003-.117c0-.178-.038-.303-.124-.377-.113-.103-.28-.153-.502-.153-.207 0-.362.04-.46.11-.096.073-.172.203-.217.388l-.432-.057c.04-.187.107-.334.195-.447.09-.113.218-.203.39-.26.168-.064.367-.095.59-.095.225 0 .403.024.538.078.14.054.243.117.308.195l.138.3c.016.078.024.215.024.41v.587c0 .41.01.67.027.775l.11.317h-.462l-.088-.325M35.16 66.72h1.452c-.023-.22-.077-.383-.167-.496-.14-.167-.322-.253-.545-.253-.203 0-.374.067-.51.204-.14.135-.218.318-.23.545m1.444.71l.455.057c-.07.268-.204.475-.398.618-.194.148-.445.223-.743.223-.383 0-.686-.117-.91-.35-.22-.238-.33-.566-.33-.99 0-.437.113-.775.334-1.016.227-.24.52-.362.876-.362.35 0 .632.117.853.354.223.234.335.57.335 1.002l-.007.11h-1.94c.02.29.1.508.24.66.15.15.332.23.548.23.163 0 .298-.043.412-.128.12-.088.21-.225.274-.407M40.667 66.965c-.16.06-.398.117-.718.163-.184.027-.308.06-.386.09l-.17.14-.062.214.13.29c.09.08.22.118.39.118s.325-.034.456-.108c.13-.074.23-.178.293-.307.047-.098.068-.245.068-.437v-.163zm.04.98c-.16.14-.32.24-.473.293-.15.063-.31.09-.487.09-.284 0-.507-.07-.658-.215-.156-.133-.23-.315-.23-.53l.085-.35.23-.253.315-.144c.09-.023.218-.047.394-.066.354-.043.615-.094.783-.153l.003-.117c0-.178-.038-.303-.124-.377-.113-.103-.28-.153-.498-.153-.21 0-.362.04-.464.11-.097.073-.17.203-.218.388l-.432-.057c.04-.187.106-.334.195-.447.09-.113.22-.203.387-.26.173-.064.367-.095.592-.095.222 0 .4.024.536.078.14.054.247.117.308.195l.14.3c.012.078.02.215.02.41v.587c0 .41.01.67.03.775l.11.317h-.46l-.088-.325M45.81 67.01l.476.118c-.1.388-.28.69-.537.895-.264.203-.58.308-.95.308-.388 0-.703-.08-.944-.237-.245-.156-.428-.385-.552-.685-.13-.3-.19-.62-.19-.962 0-.378.07-.7.21-.978.147-.28.35-.49.614-.635.26-.144.554-.218.87-.218.357 0 .66.094.902.273.25.184.417.444.514.772l-.467.113c-.08-.26-.207-.452-.363-.57-.16-.12-.358-.182-.595-.182-.282 0-.508.07-.694.204-.187.128-.315.307-.39.53-.078.225-.117.452-.117.69 0 .307.045.57.135.802.09.225.227.397.414.51.186.112.393.166.61.166.265 0 .49-.077.674-.228.186-.154.312-.385.377-.683M48.52 68.268v-.382c-.205.293-.48.44-.827.44-.153 0-.295-.03-.428-.09-.133-.058-.234-.132-.297-.22-.066-.086-.108-.196-.137-.328-.018-.086-.025-.22-.025-.408v-1.613h.44v1.44c0 .23.007.39.027.468l.176.273c.093.066.203.1.334.1.133 0 .258-.035.37-.1l.25-.28c.048-.117.073-.284.073-.507v-1.393h.44v2.6h-.396zM51.68 67.875l.063.39-.33.035c-.16 0-.286-.024-.375-.074l-.183-.2c-.04-.08-.056-.255-.056-.517v-1.5h-.324v-.343h.324v-.646l.437-.264v.912h.444v.342h-.443v1.518l.024.245.078.086.15.026.192-.01M53.82 68.268v-.382c-.208.293-.48.44-.827.44-.154 0-.295-.03-.43-.09-.134-.058-.232-.132-.298-.22-.063-.086-.11-.196-.133-.328-.023-.086-.03-.22-.03-.408v-1.613h.44v1.44c0 .23.01.39.03.468l.177.273c.09.066.197.1.33.1.132 0 .262-.035.373-.1l.245-.28c.047-.117.074-.284.074-.507v-1.393h.44v2.6h-.393zM54.897 68.268v-2.6h.397v.39c.103-.182.196-.302.28-.364l.28-.086c.15 0 .302.046.458.14l-.156.412-.32-.097-.26.086-.165.24c-.05.156-.072.333-.072.514v1.364h-.44zM58.232 66.965c-.16.06-.402.117-.718.163-.183.027-.307.06-.385.09l-.175.14-.058.214.13.29c.09.08.22.118.39.118s.32-.034.456-.108c.13-.074.227-.178.29-.307.047-.098.07-.245.07-.437v-.163zm.04.98c-.16.14-.32.24-.472.293-.153.063-.315.09-.488.09-.288 0-.505-.07-.66-.215-.154-.133-.228-.315-.228-.53l.086-.35.23-.253.315-.144c.09-.023.218-.047.39-.066.358-.043.62-.094.788-.153l.003-.117c0-.178-.038-.303-.124-.377-.113-.103-.28-.153-.502-.153-.205 0-.362.04-.46.11-.096.073-.17.203-.217.388l-.432-.057c.04-.187.107-.334.196-.447.09-.113.217-.203.388-.26.168-.064.367-.095.59-.095.225 0 .403.024.54.078.14.054.24.117.307.195l.142.3c.01.078.02.215.02.41v.587c0 .41.012.67.03.775l.11.317h-.462l-.09-.325M65.33 7.285c0 .298-.24.54-.536.54-.297 0-.538-.242-.538-.54 0-.297.24-.537.538-.537.296 0 .537.24.537.537M65.33 9.202c0 .295-.24.537-.536.537-.297 0-.538-.242-.538-.538 0-.3.24-.54.538-.54.296 0 .537.24.537.54M65.33 11.273c0 .3-.24.538-.536.538-.297 0-.538-.237-.538-.537 0-.295.24-.537.538-.537.296 0 .537.242.537.537M65.33 13.35c0 .295-.24.537-.536.537-.297 0-.538-.24-.538-.537 0-.3.24-.538.538-.538.296 0 .537.238.537.538M65.33 15.585c0 .295-.24.534-.536.534-.297 0-.538-.24-.538-.535 0-.3.24-.538.538-.538.296 0 .537.238.537.538M65.33 17.816c0 .3-.24.538-.536.538-.297 0-.538-.238-.538-.538 0-.295.24-.537.538-.537.296 0 .537.24.537.536M65.33 20.114c0 .3-.24.54-.536.54-.297 0-.538-.24-.538-.54 0-.297.24-.534.538-.534.296 0 .537.237.537.534M65.33 22.416c0 .295-.24.534-.536.534-.297 0-.538-.238-.538-.534 0-.3.24-.542.538-.542.296 0 .537.243.537.542M65.33 24.905c0 .295-.24.537-.536.537-.297 0-.538-.24-.538-.537 0-.3.24-.538.538-.538.296 0 .537.24.537.538M65.33 27.394c0 .3-.24.537-.536.537-.297 0-.538-.236-.538-.536 0-.297.24-.538.538-.538.296 0 .537.24.537.538M65.33 30.01c0 .3-.24.542-.536.542-.297 0-.538-.24-.538-.54 0-.298.24-.54.538-.54.296 0 .537.242.537.54M65.33 32.694c0 .297-.24.538-.536.538-.297 0-.538-.24-.538-.538 0-.3.24-.538.538-.538.296 0 .537.238.537.538M65.33 35.503c0 .295-.24.537-.536.537-.297 0-.538-.24-.538-.537 0-.3.24-.538.538-.538.296 0 .537.238.537.538M65.33 38.696c0 .297-.24.537-.536.537-.297 0-.538-.24-.538-.537 0-.295.24-.537.538-.537.296 0 .537.24.537.536M65.33 42.205c0 .3-.24.538-.536.538-.297 0-.538-.238-.538-.538 0-.295.24-.537.538-.537.296 0 .537.24.537.537M65.33 46.357c0 .295-.24.537-.536.537-.297 0-.538-.24-.538-.537 0-.3.24-.538.538-.538.296 0 .537.237.537.537M65.33 50.824c0 .3-.24.537-.536.537-.297 0-.538-.236-.538-.536 0-.297.24-.537.538-.537.296 0 .537.24.537.537M65.33 55.926c0 .3-.24.54-.536.54-.297 0-.538-.24-.538-.54 0-.293.24-.538.538-.538.296 0 .537.245.537.538M65.33 61.682c0 .3-.24.538-.536.538-.297 0-.538-.238-.538-.538 0-.295.24-.537.538-.537.296 0 .537.242.537.537M65.33 68.066c0 .3-.24.537-.536.537-.297 0-.538-.237-.538-.537 0-.295.24-.537.538-.537.296 0 .537.24.537.536M25.742 34.734s0 .993 1.126.993c1.125 0 1.06-.993 1.06-.993V21.89h-.83v12.876s0 .234-.297.234c-.3 0-.232-.3-.232-.3V21.89h-.826v12.844zM48.382 25.995v-3.112s-.03-.992-1.09-.992-1.06.993-1.06.993v11.852s-.03.993 1.06.993 1.09-.993 1.09-.993v-3.473h-.826v3.473s0 .265-.264.265c-.245 0-.3-.265-.3-.265V22.883s0-.3.3-.3c.264 0 .264.3.264.3v3.112h.826zM52.853 34.735s.036.265-.295.265-.33-.265-.33-.265V22.883s0-.295.294-.295c.33 0 .33.295.33.295v11.852zm.794-11.852s.067-.992-1.09-.992c-1.162 0-1.162.993-1.162.993v11.852s0 .993 1.094.993c1.156 0 1.156-.993 1.156-.993V22.883zM42.325 34.734s0 .265-.214.245c-.216-.012-.216-.246-.216-.246v-3.478h-.862v3.478s-.03.993 1.063.993c1.092 0 1.092-.993 1.092-.993v-2.99c-.004-1.628-1.293-4.725-1.293-5.75v-3.11s-.03-.296.2-.296.23.295.23.295v3.112h.863v-3.112s.03-1.023-1.06-.992c-1.094.03-1.094.993-1.094.993v2.65c0 1.737 1.293 4.665 1.293 6.005v3.196z"/></g></svg>