<svg xmlns="http://www.w3.org/2000/svg" width="118.421" height="77.632" viewBox="0 0 118.421 77.632"><g fill="#184A8F"><path d="M57.078 47.94h4.776l7.325-22.03v22.03h4.668V20.51h-7.625L59.52 41.603l-6.876-21.09h-4.738M79.493 47.945h4.697V20.542h-4.697v27.275M94.51 47.857V26.934l11.064 20.923h6.336V20.53h-4.713v21.195L96.047 20.53H89.79v27.327M11.08 55.505h2.735v.547h-2.08v1.69h1.923v.537h-1.922v2.294h-.655M40.978 55.235h.664v5.338h-.664zM46.168 55.235h.666v5.338h-.666zM62.243 55.235h.66v5.338h-.66zM73.858 55.506h.655v5.067h-.655zM105.336 64.533h.924v5.07h-.924zM107.97 68.892c.127.025.324.025.512.025 1.202.01 1.92-.657 1.92-1.942.005-1.117-.644-1.758-1.8-1.758-.292 0-.504.025-.633.054v3.622zm-.927-4.295c.41-.065.926-.103 1.473-.103.95 0 1.606.197 2.068.587.493.4.794 1.004.794 1.867 0 .9-.31 1.58-.794 2.014-.502.46-1.305.696-2.29.696-.54 0-.946-.03-1.25-.07v-4.99zM33.894 48.63c8.527-.026 13.437-6.26 13.475-14.28-.044-8.208-4.892-14.41-13.314-14.514v4.073c2.922.033 5.058 1.36 6.365 3.3 1.33 1.98 1.87 4.55 1.87 7.14 0 2.477-.54 4.99-1.876 6.936-1.325 1.956-3.515 3.28-6.52 3.27-4.894.02-7.422-3.468-8.135-7.34h-5.094c1.087 6.588 5.746 11.388 13.228 11.413"/><path d="M27.604 13.862c-7.785 0-8.274 4.508-8.422 6.018h6.71v12.555h-15.57v-10.94c0-8.45 7.163-13.116 17.283-13.116v5.482zM17.493 59.582c0 .375.005.706.03.99h-.586l-.04-.59h-.014c-.173.292-.556.676-1.202.676-.576 0-1.255-.32-1.255-1.597v-2.127h.66v2.014c0 .695.206 1.162.812 1.162.442 0 .75-.31.872-.602l.058-.34v-2.235h.664v2.65zM18.31 57.92c0-.376-.003-.685-.028-.986h.587l.033.6h.018c.18-.344.602-.683 1.203-.683.503 0 1.287.3 1.287 1.55v2.174h-.66v-2.097c0-.588-.22-1.076-.842-1.076-.438 0-.774.306-.888.68l-.043.306v2.187h-.666V57.92zM24.69 58.416l-.03-.282c-.098-.42-.46-.762-.958-.762-.682 0-1.088.6-1.088 1.402 0 .74.36 1.35 1.075 1.35.44 0 .85-.296.968-.794l.03-.285v-.63zm.664-3.18v4.4c0 .32.005.69.03.937h-.595l-.032-.635h-.014c-.202.415-.646.72-1.242.72-.882 0-1.557-.744-1.557-1.852-.01-1.207.743-1.956 1.63-1.956.557 0 .932.265 1.1.558h.014v-2.173h.664zM26.58 58.76c0 .8.458 1.4 1.104 1.4.63 0 1.108-.592 1.108-1.413 0-.617-.31-1.4-1.094-1.4-.777 0-1.118.725-1.118 1.414m2.887-.033c0 1.344-.93 1.93-1.814 1.93-.984 0-1.743-.72-1.743-1.87 0-1.218.8-1.936 1.803-1.936 1.045 0 1.754.763 1.754 1.877M35.637 58.347c-.038-.71-.083-1.557-.074-2.187h-.023c-.17.597-.384 1.227-.64 1.926L34 60.55h-.496l-.82-2.42c-.24-.714-.44-1.37-.584-1.97h-.014c-.016.63-.054 1.478-.097 2.24l-.134 2.174h-.626l.348-5.07h.84l.865 2.448c.208.632.384 1.187.507 1.71h.023c.13-.506.312-1.067.532-1.71l.908-2.447h.832l.32 5.07h-.64l-.128-2.228zM40.16 59.582c0 .375.003.706.03.99h-.587l-.04-.59h-.016c-.17.292-.554.676-1.2.676-.577 0-1.256-.32-1.256-1.597v-2.127h.66v2.014c0 .695.207 1.162.813 1.162.442 0 .753-.31.872-.602l.063-.34v-2.235h.66v2.65zM43.272 55.89v1.044h.95v.505h-.95v1.96c0 .454.128.705.498.705.17 0 .3-.02.383-.043l.03.496c-.127.056-.33.094-.585.094-.31 0-.556-.103-.718-.282-.184-.195-.253-.516-.253-.946V57.44h-.565v-.505h.565v-.873l.645-.173zM44.686 56.934h.666v3.64h-.666v-3.64zm.738-1.025c.005.226-.157.41-.42.41-.235 0-.398-.183-.398-.41 0-.232.17-.414.413-.414.247 0 .404.182.404.413M49.582 58.717c-.72-.016-1.538.114-1.538.817 0 .43.282.635.62.635.48 0 .78-.302.882-.61l.036-.21v-.633zm.103 1.857l-.054-.453h-.024c-.202.286-.596.537-1.112.537-.74 0-1.113-.518-1.113-1.045 0-.88.784-1.364 2.194-1.353v-.075c0-.3-.085-.846-.834-.846-.334 0-.69.107-.946.275l-.152-.44c.305-.198.742-.324 1.195-.324 1.113 0 1.384.764 1.384 1.488v1.364c0 .314.017.624.066.872h-.6zM51.813 55.89v1.044h.946v.505h-.947v1.96c0 .454.128.705.498.705.172 0 .295-.02.38-.043l.034.496c-.128.056-.336.094-.586.094-.31 0-.56-.103-.72-.282-.186-.195-.254-.516-.254-.946V57.44h-.56v-.505h.56v-.873l.65-.173zM55.535 58.4c.005-.418-.17-1.073-.917-1.073-.668 0-.964.615-1.018 1.074h1.935zm-1.94.474c.014.89.586 1.265 1.25 1.265.474 0 .76-.084 1.006-.192l.115.478c-.236.103-.632.226-1.21.226-1.123 0-1.797-.738-1.797-1.837 0-1.097.652-1.965 1.71-1.965 1.192 0 1.508 1.048 1.508 1.714l-.023.31h-2.558zM56.717 58.07c0-.432-.01-.797-.034-1.136h.58l.026.718h.028c.168-.493.56-.803 1.01-.803l.19.024v.62l-.228-.02c-.467 0-.798.355-.892.853l-.025.31v1.936h-.655V58.07zM60.815 58.717c-.724-.016-1.54.114-1.54.817 0 .43.284.635.625.635.473 0 .772-.302.875-.61l.04-.21v-.633zm.1 1.857l-.055-.453h-.02c-.202.286-.596.537-1.113.537-.738 0-1.112-.518-1.112-1.045 0-.88.778-1.364 2.187-1.353v-.075c0-.3-.085-.846-.828-.846-.34 0-.69.107-.95.275l-.15-.44c.302-.198.74-.324 1.197-.324 1.114 0 1.385.764 1.385 1.488v1.364c0 .314.016.624.06.872h-.6zM67.543 58.416l-.03-.282c-.098-.42-.463-.762-.96-.762-.685 0-1.09.6-1.09 1.402 0 .74.362 1.35 1.08 1.35.44 0 .846-.296.97-.794l.03-.285v-.63zm.66-3.18v4.4c0 .32.01.69.03.937h-.596l-.025-.635h-.018c-.204.415-.646.72-1.238.72-.88 0-1.56-.744-1.56-1.852-.006-1.207.748-1.956 1.63-1.956.556 0 .935.265 1.1.558h.017v-2.173h.66zM71.33 58.4c.01-.418-.172-1.073-.916-1.073-.67 0-.96.615-1.014 1.074h1.93zm-1.94.474c.02.89.586 1.265 1.25 1.265.475 0 .76-.084 1.007-.192l.117.478c-.236.103-.635.226-1.216.226-1.12 0-1.788-.738-1.788-1.837 0-1.097.65-1.965 1.71-1.965 1.186 0 1.502 1.048 1.502 1.714l-.025.31H69.39zM75.35 57.92c0-.376-.005-.685-.03-.986h.587l.034.6h.02c.183-.344.602-.683 1.203-.683.507 0 1.285.3 1.285 1.55v2.174h-.66v-2.097c0-.588-.218-1.076-.842-1.076-.438 0-.78.306-.888.68l-.043.306v2.187h-.666V57.92zM79.5 56.934l.716 2.045c.123.333.222.632.296.934h.018c.085-.3.193-.6.31-.935l.71-2.046h.69l-1.427 3.64h-.633l-1.382-3.64h.703zM84.894 58.4c.01-.418-.17-1.073-.917-1.073-.67 0-.96.615-1.014 1.074h1.93zm-1.94.474c.015.89.586 1.265 1.252 1.265.473 0 .758-.084 1.01-.192l.107.478c-.23.103-.63.226-1.21.226-1.118 0-1.79-.738-1.79-1.837 0-1.097.647-1.965 1.71-1.965 1.187 0 1.503 1.048 1.503 1.714l-.02.31h-2.56zM85.988 59.9c.19.127.54.26.872.26.482 0 .71-.237.71-.542 0-.32-.192-.487-.68-.67-.654-.23-.96-.59-.96-1.03 0-.586.472-1.067 1.255-1.067.37 0 .695.104.897.227l-.168.484c-.143-.09-.41-.212-.743-.212-.392 0-.61.227-.61.498 0 .3.217.433.688.615.637.24.956.557.956 1.1 0 .64-.496 1.092-1.36 1.092-.394 0-.768-.097-1.024-.25l.168-.503zM89.573 55.89v1.044h.95v.505h-.95v1.96c0 .454.128.705.498.705.172 0 .3-.02.385-.043l.03.496c-.127.056-.33.094-.586.094-.306 0-.56-.103-.716-.282-.188-.195-.256-.516-.256-.946V57.44h-.567v-.505h.568v-.873l.645-.173zM90.987 56.934h.664v3.64h-.663v-3.64zm.744-1.025c.006.226-.16.41-.423.41-.236 0-.4-.183-.4-.41 0-.232.174-.414.414-.414.25 0 .41.182.41.413M92.475 57.92c0-.376-.01-.685-.03-.986h.577l.034.587h.02c.202-.344.536-.67 1.142-.67.498 0 .872.3 1.03.734h.014c.114-.206.258-.365.41-.476.218-.164.453-.256.803-.256.484 0 1.197.32 1.197 1.58v2.143h-.644V58.51c0-.692-.262-1.116-.794-1.116-.377 0-.664.28-.783.6l-.05.334v2.245h-.65V58.39c0-.575-.256-1-.76-1-.413 0-.713.33-.818.66l-.054.327v2.196h-.644V57.92zM100.778 58.4c.005-.418-.173-1.073-.917-1.073-.668 0-.963.615-1.02 1.074h1.938zm-1.94.474c.014.89.586 1.265 1.25 1.265.474 0 .76-.084 1.006-.192l.112.478c-.235.103-.63.226-1.21.226-1.123 0-1.79-.738-1.79-1.837 0-1.097.647-1.965 1.706-1.965 1.19 0 1.507 1.048 1.507 1.714l-.024.31h-2.558zM101.96 57.92c0-.376-.008-.685-.028-.986h.587l.033.6h.015c.182-.344.604-.683 1.205-.683.503 0 1.287.3 1.287 1.55v2.174h-.66v-2.097c0-.588-.22-1.076-.842-1.076-.438 0-.78.306-.89.68l-.046.306v2.187h-.66V57.92zM106.655 55.89v1.044h.944v.505h-.945v1.96c0 .454.126.705.496.705.174 0 .297-.02.38-.043l.034.496c-.126.056-.334.094-.59.094-.305 0-.556-.103-.71-.282-.192-.195-.26-.516-.26-.946V57.44h-.562v-.505h.563v-.873l.65-.173zM108.47 58.76c0 .8.463 1.4 1.11 1.4.63 0 1.107-.592 1.107-1.413 0-.617-.31-1.4-1.094-1.4-.777 0-1.122.725-1.122 1.414m2.892-.033c0 1.344-.93 1.93-1.812 1.93-.985 0-1.743-.72-1.743-1.87 0-1.218.798-1.936 1.803-1.936 1.043 0 1.752.763 1.752 1.877M49.35 67.375c-.034-.71-.083-1.557-.074-2.187h-.026c-.17.59-.38 1.227-.64 1.926l-.89 2.463h-.498L46.4 67.16c-.237-.717-.445-1.37-.582-1.972H45.8c-.016.63-.05 1.478-.1 2.24l-.133 2.172h-.624l.354-5.067h.832l.865 2.447c.213.63.386 1.182.513 1.71h.02c.128-.508.31-1.07.538-1.71l.906-2.447h.827l.32 5.067h-.64l-.13-2.225zM53.136 67.43c.005-.423-.177-1.073-.92-1.073-.67 0-.96.614-1.014 1.072h1.934zm-1.94.47c.01.894.582 1.268 1.246 1.268.473 0 .76-.085 1.01-.193l.113.478c-.235.103-.633.222-1.21.222-1.123 0-1.793-.734-1.793-1.833 0-1.097.644-1.965 1.71-1.965 1.185 0 1.5 1.05 1.5 1.714l-.018.31h-2.557zM54.32 66.946c0-.375-.012-.684-.035-.985h.58l.03.588h.02c.208-.345.547-.67 1.142-.67.502 0 .877.3 1.036.73h.013c.114-.203.258-.36.406-.476.22-.166.457-.254.807-.254.48 0 1.196.32 1.196 1.58v2.143h-.65V67.54c0-.695-.256-1.12-.79-1.12-.378 0-.668.283-.782.602l-.054.336V69.6h-.644v-2.18c0-.577-.256-1-.76-1-.413 0-.713.33-.817.66l-.055.324V69.6h-.644v-2.654zM60.963 68.143l.036.236c.125.463.506.777.988.777.695 0 1.108-.567 1.108-1.4 0-.728-.38-1.352-1.083-1.352-.453 0-.873.31-1.01.812l-.04.27v.656zm-.68 1.458c.015-.244.03-.614.03-.94v-4.397h.65v2.285h.02c.236-.404.655-.67 1.242-.67.9 0 1.536.753 1.532 1.857 0 1.3-.818 1.95-1.63 1.95-.528 0-.95-.203-1.22-.685h-.02l-.032.6h-.57zM64.317 67.1c0-.434-.01-.8-.034-1.138h.58l.024.715h.03c.163-.487.562-.8 1.006-.8l.19.026v.62l-.23-.02c-.464 0-.792.357-.888.855l-.023.31v1.935h-.655V67.1zM66.903 67.79c0 .797.457 1.398 1.108 1.398.625 0 1.104-.59 1.104-1.413 0-.615-.31-1.4-1.092-1.4-.78 0-1.12.72-1.12 1.414m2.887-.036c0 1.344-.932 1.93-1.813 1.93-.985 0-1.743-.72-1.743-1.87 0-1.224.798-1.936 1.8-1.936 1.046 0 1.755.763 1.755 1.876M74.15 67.445l-.035-.282c-.096-.42-.458-.763-.95-.763-.687 0-1.095.6-1.095 1.404 0 .738.36 1.35 1.08 1.35.443 0 .845-.296.964-.794l.034-.285v-.63zm.657-3.182v4.4c0 .322.01.692.03.938h-.59l-.03-.634h-.014c-.208.413-.65.718-1.242.718-.88 0-1.562-.744-1.562-1.85-.004-1.207.75-1.956 1.63-1.956.564 0 .938.265 1.104.556h.016v-2.17h.66zM76.034 67.79c0 .797.464 1.398 1.108 1.398.632 0 1.103-.59 1.103-1.413 0-.615-.305-1.4-1.088-1.4-.784 0-1.123.72-1.123 1.414m2.886-.036c0 1.344-.93 1.93-1.806 1.93-.985 0-1.75-.72-1.75-1.87 0-1.224.8-1.936 1.807-1.936 1.046 0 1.75.763 1.75 1.876M84.846 69.37c-.325.116-.957.28-1.635.28-.85 0-1.502-.216-1.984-.674-.453-.43-.715-1.1-.704-1.862 0-1.606 1.142-2.635 2.822-2.635.62 0 1.106.127 1.34.24l-.203.745c-.273-.117-.614-.217-1.147-.217-1.083 0-1.846.64-1.846 1.823 0 1.147.71 1.833 1.763 1.833.328 0 .58-.045.698-.108v-1.26h-.897v-.728h1.795v2.562zM85.476 67.12c0-.5-.01-.85-.03-1.183h.81l.026.704h.03c.178-.52.607-.782 1.003-.782l.21.02v.872l-.266-.03c-.443 0-.744.292-.83.7l-.028.286V69.6h-.926v-2.48zM91.155 68.502c0 .44.014.798.034 1.1h-.818l-.043-.557h-.015c-.16.265-.518.64-1.173.64-.67 0-1.28-.398-1.28-1.596v-2.15h.927v1.992c0 .61.194.998.68.998.37 0 .613-.26.707-.496l.054-.282v-2.21h.927v2.56zM92.805 68.068l.03.253c.087.38.418.65.81.65.588 0 .934-.486.934-1.21 0-.644-.317-1.173-.91-1.173-.383 0-.74.276-.83.68l-.035.235v.566zm-.926-.91c0-.483-.016-.876-.032-1.22h.814l.043.566h.014c.27-.413.7-.646 1.257-.646.84 0 1.54.72 1.54 1.868 0 1.32-.83 1.96-1.67 1.96-.458 0-.84-.197-1.03-.487h-.014v1.896h-.926V67.16zM96.725 67.775c0 .71.345 1.24.91 1.24.523 0 .892-.516.892-1.256 0-.57-.256-1.228-.888-1.228-.653 0-.915.633-.915 1.243m2.758-.04c0 1.348-.944 1.95-1.88 1.95-1.035 0-1.834-.714-1.834-1.892 0-1.202.788-1.935 1.89-1.935 1.095 0 1.823.77 1.823 1.877M102.198 68.93c.123.022.28.027.49.027.593 0 1.12-.227 1.12-.848 0-.59-.513-.833-1.15-.833h-.46v1.653zm0-2.328h.476c.64 0 1.002-.3 1.002-.73 0-.477-.36-.694-.953-.694-.265 0-.428.016-.525.04v1.384zm-.917-2.005c.297-.06.827-.103 1.35-.103.685 0 1.104.083 1.448.325.316.187.527.52.527.945 0 .467-.296.9-.843 1.103v.01c.538.138 1.025.557 1.025 1.255 0 .455-.197.808-.487 1.05-.365.316-.956.473-1.882.473-.51 0-.9-.04-1.137-.07v-4.99z"/></g></svg>